<svg xmlns="http://www.w3.org/2000/svg" viewBox="0 0 99 103.82"><defs><style>.cls-1{fill:#884e56;}.cls-2{fill:#8c753e;}.cls-3{fill:#dab760;}.cls-4{fill:#dbbf7f;}.cls-5{fill:#dbb760;}.cls-6{fill:#b99131;}.cls-7{fill:#78590f;}.cls-8{fill:#8b545b;}.cls-9{fill:#8e585f;}.cls-10{fill:#7e601a;}.cls-11{fill:#92793e;}.cls-12{fill:#dbc081;}.cls-13{fill:#b88f2e;}.cls-14{fill:#d7bc7b;}.cls-15{fill:#8d763e;}.cls-16{fill:#d8bb7a;}.cls-17{fill:#7f5f14;}.cls-18{fill:#d7bc7d;}.cls-19{fill:#dbc080;}.cls-20{fill:#dabf7e;}.cls-21{fill:#d6b364;}.cls-22{fill:#8c743d;}.cls-23{fill:#8c753d;}.cls-24{fill:#b79030;}.cls-25{fill:#b79032;}.cls-26{fill:#d1b574;}.cls-27{fill:#d8b55f;}.cls-28{fill:#785910;}.cls-29{fill:#d8bd7e;}.cls-30{fill:#d9bd7e;}.cls-31{fill:#d3b577;}.cls-32{fill:#c9ac66;}.cls-33{fill:#d7b45f;}.cls-34{fill:#d7bc7c;}.cls-35{fill:#d9b55f;}.cls-36{fill:#d6b35e;}.cls-37{fill:#d4b15d;}</style></defs><title>about</title><g id="Слой_2" data-name="Слой 2"><g id="Слой_1-2" data-name="Слой 1"><path class="cls-1" d="M36.07,20l1.58.4,9.42-11.3c-.63-3-5.71-3.93-3.53-8.06,3.36-.76,4,3.14,6.61,3.79,2.57-1,3.18-4.7,6.7-4.89,3,4.36-2.66,5.23-2.94,7.9L64.41,18.74c2.21-.69,2.66-4.65,6.23-3.92,2,3.77-2.34,4.88-3.11,7.76l10,9.79c2.52-1.05,2.77-5.74,7.16-4.23,1,3.59-3.33,4.69-3.59,7.24l9.64,9.85c1.32-.77,2.1-2.48,3.22-3.82,1.61-1.93,3.18-2.11,5.08-.59v2c-1,1.85-2.4,3.48-3.16,5.08.22,2.49,2.46,3.55,2.63,5.62s-.57,3.27-2.79,3.24c-1.93-.09-3.15-1.56-4.86-2.67-2.12,1.35-3.2,4.21-6,4.55-3.44,0-5.72-2.45-8.34-4.1-3.79-2.38-7.39-5.07-11.36-7.17-1.06-.9-1.56-2.29-2.74-3.1C54.59,38,46.16,32.5,39,25.51,37.45,24,34.62,23.14,36.07,20Z"/><path class="cls-1" d="M62.09,85c-1.74,3.63-5.33,5.86-7.16,9.46.29,3,5.55,3.67,3.7,7.94-3.56.65-4.49-3-7.18-4.24-1.66,1.9-3.17,4.18-5.45,5.65H44c-.69-3.85,2.63-5.76,4.36-8.73C45.65,91.33,42,88.5,38.75,85c-1.9,1-2.63,3.61-5.11,3.54-.82-.4-.88-1.28-1.28-2.2L35.15,82c-2.45-3.87-6.59-5.73-9.17-9.15a1,1,0,0,1,.17-1.4c1.65-.92,3.21-.26,4.77.3,9.65,3.46,19.17,7.3,28.84,10.7C60.88,82.87,62.53,83.05,62.09,85Z"/><path class="cls-2" d="M10,50.7c.29-5-.73-9.81-1.43-14.66-.54-3.7,0-7.6-1.69-11.12-.08-.76.17-1.52,0-2.32A7.38,7.38,0,0,1,4,23.89c-1.17,0-1.61-.72-2.15-1.67-.63-1.12-.49-2.67-1.82-3.4v-2l3.23-6c1.8-1.08,2.46.31,2.63,1.53C6.23,15,8,16.53,10,17.92a5.55,5.55,0,0,1,.94,1.2,11.15,11.15,0,0,1,1.34,4.58c.08,6,1.59,11.71,2.41,17.55a17.25,17.25,0,0,1,.25,5.87c-.89,3.07-.33,6.22-.62,9.32-.17,1.78.45,4.16-2.5,4.44-.59-.15-.7-.63-.8-1.13C9.07,56.92,9.19,53.85,10,50.7Z"/><path class="cls-3" d="M36.07,20c0,2.61,2.36,3.34,3.88,4.75,6.88,6.37,14.47,11.83,22,17.44a7.49,7.49,0,0,1,1.21,1.55c1.43,2.6.57,4.65-1.54,6.4-6.15-1.22-10.73-5.09-15.29-9a33.9,33.9,0,0,1-1.14-5c-.6,1.22-.86,2.55-2.22,3-4.09-1-7.67-2.76-9.9-6.57a32.63,32.63,0,0,1-1-9.86c.09-1.33-.27-3.21,2.12-3Z"/><path class="cls-4" d="M34.16,19.68C31.42,22.07,34,25,33.6,27.63a25.18,25.18,0,0,0,.4,5.2c-2.05,1.41-3.42-.31-4.89-1.17A96.69,96.69,0,0,0,19.17,26a3.77,3.77,0,0,1-1.83-1.54A6.36,6.36,0,0,1,17,20.2c1.55-3.61,4.85-2.52,7.64-2.85,2.14-.25,4.18.63,6.3.54A8.68,8.68,0,0,1,34.16,19.68Z"/><path class="cls-5" d="M31,17.89c-.51,1.23-1.6.91-2.54.92-3.28,0-6.55,0-9.4,0a2.49,2.49,0,0,0-1.08,2.07c-2.79-.21-1.39-2.76-2.32-4-.07,1.1.32,2.33-.71,3.23a5,5,0,0,1-4.84-1.27l-.12,0c-.84-4.43,1.64-7.65,4-10.9,1.92-.44,2.91,1.26,4.24,2C22.54,12.46,26.72,15.23,31,17.89Z"/><path class="cls-6" d="M14,7.93c-.4,4-3.16,7.09-4,10.9l-4.58-2.4c-.69-1.49-.23-3-.41-4.37-.13-1-.91-1.19-1.74-1.27.34-2.36,2.42-2.42,4-2.66A51.7,51.7,0,0,1,14,7.93Z"/><path class="cls-7" d="M11.82,60.88c1.23-.36,1.17-1.36,1.17-2.34,0-3.08,0-6.16,0-9.24,0-.93-.26-2,1-2.46,2,2.08,2.3,4.8,2.24,7.4-.09,4.24,2,6.27,5.81,7.4C27.25,63.18,32.4,65,37.57,66.78c.71.23,1.4.53,2.11.76,4.91,1.62,9.75,3.44,14.54,5.4,6.23,2.36,12.42,4.79,18.83,6.65A12.48,12.48,0,0,1,74.5,80C79.7,81.9,85.39,82.47,90,85.84c-.8,2.24-2.4,3.88-3.91,5.59C78.92,89.34,72,87.34,65,85.26A6.05,6.05,0,0,0,62.09,85c-3.51-2-7.48-2.81-11.2-4.26-7.31-2.86-14.65-5.62-22-8.5a10.77,10.77,0,0,0-2.9-.5,5.62,5.62,0,0,1-5-2.88L12.5,65.43C11.69,63.85,12,62.33,11.82,60.88Z"/><path class="cls-8" d="M10,50.7c1.8,2.84.76,6,1.06,9-2.12-.14-2.57,1.81-3.69,2.93-1.46,1.46-2.83,1.58-4.1-.49.63-3,3.66-4.57,4.72-7.34-.78-2.66-5.39-3.4-3.67-7.39C7.62,46,8.17,49.47,10,50.7Z"/><path class="cls-9" d="M21,68.87c1.75.85,3.66,1.4,5,2.88L26,72.87c-1.61-.18-2.33,1-3,2.09-1,1.58-2.26,2.32-4.17,1.58-1.07-1.23-.6-2.35.32-3.45S21.62,70.84,21,68.87Z"/><path class="cls-10" d="M4,23.89c.69-2.36,3.39-2,4.76-3.65-.89,1.57,0,3.67-1.88,4.68C5.83,24.72,4.67,24.94,4,23.89Z"/><path class="cls-5" d="M85.13,58.07q0,.34.07.67c-.67,1.37-2,2.25-2.62,3.68a32.81,32.81,0,0,0-3.08,7.65A65.09,65.09,0,0,0,76,77c-.58,1.39-.93,3.32-3.24,2.88-2.88-2.4-2.61-5.84-3-9.06a9.21,9.21,0,0,0-.43-2.72c-.39-1.26-.89-2.53-.18-3.84.76-1.89-1.36-2.4-1.8-3.71-.6-1.52-1.36-3-.56-4.71a1.74,1.74,0,0,1,1.63-.27c-2.76-2.5-5.41-4.9-3.34-8.94a6.55,6.55,0,0,1,3.62,1.19c3.83,2.73,7.83,5.24,11.72,7.89A11.61,11.61,0,0,0,85.13,58.07Z"/><path class="cls-11" d="M65,46.68c-.41,2.25,1,4.06,1.35,5.94,1.53,1.64,4.14,1.88,4.57,4.49-1.65.58-2.6-.92-3.9-1.23-2.5-.05-4.28-1.61-6.19-2.92a3.06,3.06,0,0,1-1.13-1.67c.05-.8.63-1.12,1.27-1.38,1.66-1.71,1.92-3.9,2.13-6.12C65.31,43.72,65,45.29,65,46.68Z"/><path class="cls-3" d="M90,85.84c-5.58-1-10.82-3.14-16.16-4.93a7.13,7.13,0,0,1,5.22-3.54c1.21,0,2.17.7,3.24,1.12,4.18,1.62,7.43.1,9-4.17a27.51,27.51,0,0,1,1.2-3.78,3.61,3.61,0,0,1,3.15-1.87c1.48,1.15.28,2.93,1.17,4.14v6.26A35.51,35.51,0,0,1,90,85.84Z"/><path class="cls-12" d="M96.85,72.81c-1.53-.76-.46-2.3-1.05-3.42-1.3-.4-1.57,1.23-2.59,1.39-2.79-3.35-5.11-7.38-10.35-7.23-.68-.39-1.23-.84-.87-1.74,0-2.17,1.21-3,3.21-3.08a16,16,0,0,1,2.39.41C95.11,61.6,97.19,64.69,96.85,72.81Z"/><path class="cls-13" d="M37.92,67.89c-7.81-2-15.56-4.25-23-8,.64-4.75-.72-8.86-1-13.09-.71-5.12-1-10.34-2.28-15.33-.75-3-.41-5.84-.66-8.75,3.39-.07,3.37,3.16,4.82,5A15.19,15.19,0,0,1,17,30.57c1.89,8.8,2.1,17.87,4.06,26.66.43.59,1.19-.49.67-.07-.19.16-.36.1-.43-.19-1.44-6.06-2.67-12.14-2.09-18.43a2,2,0,0,1,1.14-1c1.23,0,1.84.84,2.43,1.73.7,1.79,2.2,3.35,1.68,5.52-1,1.9-.83,3.44,1.29,4.43,1.78.83,3.6,1.62,4.79,3.31q3.69,6.31,7.29,12.68C38.19,66.07,38.59,67,37.92,67.89Z"/><path class="cls-14" d="M15,27.83c-2-1.17-1.59-4.21-4-5.07.17-1.43-1.38-2.45-.94-3.94,1.64.05,3.36-.29,4.72,1,1.67,1.24,1.5,3.06,1.51,4.82A4.16,4.16,0,0,1,15,27.83Z"/><path class="cls-15" d="M61,49.91a1.18,1.18,0,0,1-1.07,1c-4.7,1.29-7.23-3-10.94-4.25a44.08,44.08,0,0,0-6.59-3.85,75.59,75.59,0,0,0-8-4.47c-3.9-2.54-8-4.68-12-7.13-2.27-1.41-4.66-3.07-2.32-6.3C24,27.24,27.88,29.6,31.74,32a3.94,3.94,0,0,0,2.26.79c2.63,2.55,6,3.92,9,5.87,2-.48,2.84,1.07,3.94,2.18Z"/><path class="cls-16" d="M47,40.88C45.2,41,44.39,39.36,43,38.7c1.58-1.94.55-4.5,1.7-6.69A18.54,18.54,0,0,1,47,40.88Z"/><path class="cls-17" d="M15.06,24.72l-.26-4.89c0-2.35-2-5.12,1.53-6.83,1.75,2.44-.5,5.64,1.61,7.89l.23,3.92a21.3,21.3,0,0,1,2.17,7.62c-.22,1.77,1,3.63-.3,5.34,0,4.92.92,9.73,1.66,14.57.35,2.25.26,4.57.39,7.22C20.23,59,19,58,19.1,56.49c.1-2.85-.83-5.5-1.06-8.26a118.48,118.48,0,0,0-1.92-14.54,25.36,25.36,0,0,1-.22-4C15,28.17,16.11,26.26,15.06,24.72Z"/><path class="cls-18" d="M19.14,32.81l-1-8,1.9,0L19.92,28c3.83,3.08,8.42,5,12.53,7.59,1,.62,2.08,1,2.61,2.12a2.61,2.61,0,0,1,.41,2.84c-1.82,1.86-3.37.31-4.87-.51-3.34-1.82-6.56-3.85-9.83-5.82A9.31,9.31,0,0,1,19.14,32.81Z"/><path class="cls-13" d="M70.9,69.77A24.55,24.55,0,0,0,73,79.82q.5.33.33.65T73,80.8a108.54,108.54,0,0,1-19-7c0-.24,0-.48,0-.72,1.07-3.14,1.26-6.56,3-9.51C62.23,64.2,66.54,67,70.9,69.77Z"/><path class="cls-19" d="M54,73.84,39,68.61c-1.28-4.27-1.78-8.39,2.25-11.63,4.45-.08,7.87,2.28,11.21,4.81,1.39,3.84,3,7.66,1.47,11.87Z"/><path class="cls-20" d="M73,80.8a9.18,9.18,0,0,1,0-1c1.41-1,1.46-2.72,2.14-4.1,1-2.08,1.27-4.78,3.84-5.89l.47.5c.6,2.48-.66,4.86-.39,7.33-1.26,1.85-3.5,2.13-5.21,3.25A2,2,0,0,1,73,80.8Z"/><path class="cls-21" d="M42,57.81c-.83.05-2,.14-1.89,1.1.33,3.33-1.69,6.37-1.07,9.69-.61.13-.92-.21-1.11-.72L37,65.81c.36-3.39-2.58-6.71-.23-10.14C39.11,55,41.2,54.81,42,57.81Z"/><path class="cls-22" d="M21.07,32.85c4.58,2.77,8.93,5.92,13.93,8,3.3.33,5.52,2.95,8.48,4,1.73,1.06,3.38,2.25,5.12,3.3,4,2.25,7.95,4.47,11.82,6.87C63,56.82,66.24,57.88,68,60.78c1.19.84,2.78,1.08,3.65,2.43A2,2,0,0,1,70,64.75c-4.26-.67-7.76-3-11.4-5.08a86.36,86.36,0,0,0-9.09-4.77c-2.67-1.31-5.22-2.83-7.78-4.33-2-1.17-4.08-2.11-6.16-3.08A114.82,114.82,0,0,1,22,39.85l-1-2C20.27,36.17,19.67,34.5,21.07,32.85Z"/><path class="cls-23" d="M42,57.81c-1.41-1.3-3.2-1.66-5-2a9.84,9.84,0,0,1-7-2.94c-2.17-2-5.38-2.16-7.77-4.24,0-1.51-1.39-3.54,1.75-3.79,4.64.28,7.88,3.79,12,5.18q2.72,1.49,5.53,2.8c2.88,1.44,5.71,3,8.69,4.22s6,2.58,9,4c3.55,2.3,8.05,3.1,10.77,6.75,1,.34,1,1.14.88,2-5.1-.88-9.28-3.94-13.93-5.89-2.44,1.35-3.69-.36-5-1.94C48.43,61.09,45.61,58.49,42,57.81Z"/><path class="cls-24" d="M70,67.8c-3.64-2.06-7.75-3.26-11-6a2.11,2.11,0,0,1,0-3c3.59,2.1,7.67,3.3,11,5.94C68.38,65.77,70.62,66.78,70,67.8Z"/><path class="cls-25" d="M68,60.78a45.44,45.44,0,0,1-8-4.95,3.37,3.37,0,0,1,1-4c1.82,1.64,4.42,2.1,6.06,4C67,57.6,68.46,59,68,60.78Z"/><path class="cls-26" d="M82,61.82a1.18,1.18,0,0,0,1,1c.19,3.16-.75,5.71-3.86,7.09L79,69.83A10.06,10.06,0,0,1,82,61.82Z"/><path class="cls-27" d="M61,51.86a5.56,5.56,0,0,1-1,4,103.23,103.23,0,0,1-12-7c-.08-1.16-.1-2.3,1-3.07,2.23.21,3.74,1.82,5.58,2.8,1.68.9,3.25,2.22,5.31,2.31A1.38,1.38,0,0,0,61,51.86Z"/><path class="cls-28" d="M79.17,69.92c1.86-2,2.38-4.83,3.86-7.09,7.24.23,7.56.48,10.19,8a20.82,20.82,0,0,1-1.59,6.69c-6.58,4.47-7,4.48-12.54.19l-1.66-2.38C77.81,73.45,79.22,71.92,79.17,69.92Z"/><path class="cls-29" d="M36,50.83a45,45,0,0,1-12-6c.46-2.11-2.5-2.84-2-5a5.07,5.07,0,0,1,2.82.42c3.71,2.19,7.46,4.33,11.19,6.49C37,48.13,37.23,49.48,36,50.83Z"/><path class="cls-30" d="M30,52.86c2.52.5,5,1.06,7,2.94.11,1.91-.15,3.77.71,5.7.55,1.23,1.14,3.16-.71,4.32C34.51,61.59,31.47,57.66,30,52.86Z"/><path class="cls-31" d="M21.07,32.85l-.07,5-1-.08c-.07-1.7-1.48-3.15-.91-5Z"/><path class="cls-32" d="M15.06,24.72c1.6,1.45.7,3.31.84,5-1.06-.27-.85-1.15-.9-1.9Z"/><path class="cls-33" d="M43,45.78c-2.86-1.34-5.71-2.69-8-5l.07-3.13c3,.74,5.45,2.48,7.94,4.16C43.86,43.17,44.21,44.48,43,45.78Z"/><path class="cls-34" d="M43,45.78V41.86c2,1.26,4.7,1.53,6,3.89-.24,1.05.56,2.45-1,3.07Z"/><path class="cls-35" d="M52,61.94c1.75.43,3.1,1.87,5,1.94.2,3.63-.21,7.07-3,9.78C53.7,69.68,52,66,52,61.94Z"/><path class="cls-34" d="M50,57.84c-3.27-.78-6-2.69-9-4.15-.87-1.59-1.76-3.18,1-3.87,2.95.8,5.24,2.9,8,4.07C51.91,56.74,51.91,56.74,50,57.84Z"/><path class="cls-36" d="M50,57.84c.88-.35,1.22-.95.65-1.78A3.58,3.58,0,0,1,50,53.89c3,1.59,6.37,2.65,9,4.92l0,3C55.72,61.08,52.91,59.34,50,57.84Z"/><path class="cls-37" d="M42,49.82c-1.8.92-.69,2.57-1,3.87-1.72-.87-3.72-1.25-5-2.86l0-4.06A12.48,12.48,0,0,1,42,49.82Z"/></g></g></svg>