<svg xmlns="http://www.w3.org/2000/svg" viewBox="0 0 1300 1407"><defs><style>.cls-1{fill:#657e95;}.cls-2{fill:#667e95;}.cls-3{fill:#94a6b5;}.cls-4{fill:#b3bfca;}.cls-5{fill:#dbe0e6;}.cls-6{fill:#b88f2e;}.cls-7{fill:#667f95;}.cls-8{fill:#fefefd;}.cls-9{fill:#fdfdfd;}.cls-10{fill:#fcfcfc;}.cls-11{fill:#fbfbfb;}.cls-12{fill:#fdfdfc;}.cls-13{fill:#fafaf8;}.cls-14{fill:#fcfbfa;}.cls-15{fill:#f7f7f5;}.cls-16{fill:#faf9f7;}.cls-17{fill:#ecebe6;}.cls-18{fill:#f7f6f3;}.cls-19{fill:#dfddd4;}.cls-20{fill:#e8e7e2;}.cls-21{fill:#dbd9d0;}.cls-22{fill:#ddd9cc;}.cls-23{fill:#d6d4c9;}.cls-24{fill:#deded9;}.cls-25{fill:#bbb7a2;}.cls-26{fill:#bbbeb8;}.cls-27{fill:#e1dbcc;}.cls-28{fill:#d0ccbc;}.cls-29{fill:#fefefe;}.cls-30{fill:#f04b42;}.cls-31{fill:#040404;}.cls-32{fill:#00ab5e;}.cls-33{fill:#73cce1;}.cls-34{fill:#020101;}.cls-35{fill:#010101;}.cls-36{fill:#020201;}.cls-37{fill:#ede3cc;}.cls-38{fill:#e0cfa6;}.cls-39{fill:#b8902e;}.cls-40{fill:#ab8633;}.cls-41{fill:#af8c2e;}.cls-42{fill:#b78f2e;}.cls-43{fill:#b68e2d;}.cls-44{fill:#b78e2d;}</style></defs><title>commonwealth</title><g id="Слой_2" data-name="Слой 2"><g id="Слой_1-2" data-name="Слой 1"><path class="cls-1" d="M725,0c1.42,1.7,3.62,1.23,5.41,1.84C751.5,9,757,34.28,745,49.54c-6.5,8.2-13.41,16.08-20.15,24.09Q709.07,92.3,693.29,111c-3.22,3.81-6.53,7.54-10.11,11.67,48,48,96,96.08,144.76,143.82,2.77-3.16,5.44-6.07,8-9.09Q858,231,880.08,204.6c9.55-11.48,26.62-15.89,40.8-6.6,16.53,10.84,18.45,31.72,7.28,45.23-14.51,17.55-29.34,34.83-44,52.24-4.06,4.81-8.07,9.67-11.62,13.94l133.78,134.53c4.08-4.73,8.2-9.45,12.26-14.24,6.67-7.86,13.28-15.75,19.94-23.62q10.46-12.37,21-24.72c7.89-9.28,18.12-13.09,29.86-10.9,12.92,2.42,21.48,10.77,24.29,23.52a29.52,29.52,0,0,1-6.56,26.61c-13.35,15.49-26.52,31.12-39.75,46.71-5.78,6.82-11.52,13.68-17.46,20.73l130,130.35c4.23-3.3,6.69-7.09,9.58-10.46q22.86-26.7,45.5-53.6c4.4-5.21,8.44-10.74,13.47-15.37a28.33,28.33,0,0,1,22.4-7.75c14.65,1.39,24.93,10.67,28.13,24.8.18.79,0,1.69,1.07,2v9c-1.81.68-1.37,2.57-1.78,3.83a34.44,34.44,0,0,1-6.45,11.68q-22.17,26.29-44.42,52.5-10.78,12.74-21.54,25.5a13.12,13.12,0,0,0-.85,1.3c.68,1.81,2.28,2.83,3.54,4.09q29.32,29.32,58.72,58.57a32.08,32.08,0,0,1,8.92,16.31c2,8.93-.43,16.77-5.4,24-10.91,15.8-34.38,16.24-47.12,3.28-18.21-18.53-36.74-36.75-55.15-55.08-1.28-1.27-2.37-2.77-4.11-3.68L1051.8,865.85c1.35,2.75,4,4,5.27,6.31-.17,2.29-2.17,2.78-3.71,3.61-25.13,13.51-52,17-80,13.48a5,5,0,0,1-3.37-1.43c-.07-3.27,2.82-4.49,4.89-6.19,8.68-7.15,8.61-11.41-.4-18.26a43.23,43.23,0,0,0-15.08-7.61c-2.05-.55-4.31-.87-5.59-3.25.73-3.7,2.77-6.93,4.91-10.08a5.12,5.12,0,0,1,4.75-2.23c15.82.77,28.34-6.1,39-17.11,5.89-6.11,5.12-9.88-2.24-14-6.42-3.62-13.38-5.78-20.22-7.61-1.36-7,.92-10.55,7.22-12,11.53-2.64,20.53-8.63,25.42-19.76,3.82-8.71,2-12.08-7.13-14.47-2.89-.75-6-.33-8.7-2-1.75-3.34.69-6.12,1.2-9.16.93-2.15,3.06-2.92,4.78-4.16,9.08-6.5,15.6-14.74,17.59-26,1.14-6.49,0-8.26-6.41-9.74-1.78-.41-3.61-.72-4.55-2.6,0-6.51,1.9-12.79,2.43-19.23.61-2.86,2.45-5.07,4-7.46a40.26,40.26,0,0,0,5.94-17.82c.61-6.23-1.29-11-6.25-14.67.22-9.62-.25-19.22-.89-28.8a91,91,0,0,0,1.1-17.83c-.21-4.29-1-8.19-3.45-11.71-1.8-10.42-3.52-20.86-5.6-31.23-.12-1.87-.87-3.62-1.08-5.48a74.71,74.71,0,0,0-6.39-22.08C992.55,501.46,982.66,479,971,457.35c-2.74-5.08-5.17-10.4-9.13-14.74-2.19-3.12-3.6-6.67-5.59-9.91a11.44,11.44,0,0,0-2.11-3.49c-26.06-38.54-58-71.3-96.53-97.45a112.62,112.62,0,0,0-10.21-7c-3.1-1.74-5.94-4-9.45-4.93-9.61-4.3-18-10.7-27.27-15.66A342.28,342.28,0,0,0,767.31,285c-2.3-.85-4.91-1.14-6.58-3.35-.51-3,1.86-4.4,3.42-6.24s3.8-3.29,2.66-6c-1-2.41-3.6-1.88-5.72-2.13-15.44-1.83-30.94-.73-46.41-1-11.31-.17-14.51-2.8-13.92-14.28.82-15.81.89-31.6.84-47.41,0-2.54.66-5.43-2.13-7.12-2.33-.18-3.31,1.57-4.53,2.85-8.63,9-17.8,17.5-26,26.92-7,8-10.59,8-17.89-.05-7.95-8.77-16.31-17.1-24.66-25.47-1.5-1.5-2.81-3.36-5.23-3.62-2,.87-1.75,2.7-1.74,4.29.16,13.82-1.73,27.58-1.07,41.41.12,2.5.28,5,.58,7.46q1.77,14.94-13,15c-16.32.05-32.64,0-49,0-2.29,0-4.67-.34-7.16,1.22.1,6,7.33,7.45,8.34,12.82-.34,2.13-2.13,2.79-3.85,3.38-33.68,11.6-64.41,28.68-93,49.83a10.39,10.39,0,0,1-1.29.75,22.92,22.92,0,0,0-6.25,3.26c-1.76,1.42-3.71,2.58-5.35,4.15-8.35,6.6-16.9,13-24.35,20.61a5.79,5.79,0,0,1-1.54,1.28,11.06,11.06,0,0,0-4.07,3q-2.14,2.08-4.17,4.26c-16,16.39-31.32,33.42-44.15,52.51a29.17,29.17,0,0,1-4,5.05c-4.32,2-6.66,5.62-8.12,10a75.47,75.47,0,0,1-3.17,8.78c-5.86,10.85-12.62,21.24-16.72,33-2.1,4.56-4.87,8.81-6.27,13.69a35,35,0,0,0-1.65,4.07c-3.27,8-5.55,16.41-8.5,24.55-10.35,7-9.25,17.69-9.1,28.07,0,1.8.65,3.58.33,5.41-2.13,8.58-2.52,17.51-5.21,26-8.43,8-6.56,18-5.49,27.81.39,3.62,2.54,6.8,3.1,10.42-.14,7-1.2,14-.58,21A2.83,2.83,0,0,1,303,642.9c-7.33,3-8.81,5.61-8,13.61a37.6,37.6,0,0,0,8.58,20.84,40.48,40.48,0,0,1,4.13,5.61c.71,1.71.67,3.6,1.3,5.34.25,4.49,2.42,8.75,1.57,13.37-1.41,1.85-3.3,1-5.05.88-6.3-.49-9.51,2.3-9.06,8.71a32.21,32.21,0,0,0,11.19,22.61c3.78,3.33,8.34,5.36,12.67,7.8,1.34,1.88,1.67,4.2,2.66,6.23a5,5,0,0,1,.22,4.15c-3.21,1.93-7.23,1.41-10.83,2.49-1.75.53-3.61.64-5.36,1.21-5,1.61-6.24,4.18-4.39,9.17,4.8,12.94,14.13,20.63,27.49,23.69,6.37,1.46,8.4,4.21,8.39,11.1-2.27,2.13-5.39,2-8.26,2.55a37.63,37.63,0,0,0-17.62,7.81c-3.52,2.91-3.81,5.67-.93,9,9.13,10.7,19.9,18.7,34.44,20.26a30.59,30.59,0,0,0,4,.29c8.33-.19,12.21,3.28,13.29,12-1.44,2.14-3.91,2.24-6.09,2.92-7.43,2.3-14.25,5.66-19.72,11.32-3.53,3.65-3.54,6.14-.24,10,1.62,1.9,3.54,3.53,5.21,5.39,1.34,1.5,2.85,3.09,1.86,5.29s-3,2.58-5.06,2.61c-7.82.11-15.66.53-23.47-.2-24.59-2.31-46.74-11.49-67.59-24.25-1.66-1-3.26-2.49-5.48-1.33-1.69,1.67-.8,3.38-.09,5.06,9.7,22.91,22.64,43.71,39.79,61.86,4.8,5.08,9.4,10.3,14.68,14.94,5.65,5,5,9.3-.93,14.5-17.36,15.15-32.46,32.08-41.08,53.9a31.08,31.08,0,0,0-2.67,10.61c-.1,4.32,2,5.66,6,4.08,3-1.19,5.71-3.62,9.35-2.69,1.53,1.76.28,3.13-.76,4.37-4.39,5.22-8.53,10.69-13.39,15.47-10.22,10.05-22.38,11.07-35.17,6.34-11.37-4.21-18.38-16-18.87-28.74-.46-11.83,6.09-19.93,13.09-28.13q21.4-25.06,42.46-50.41a5,5,0,0,0,1.31-3.64C206.66,896.74,156.45,852,105.87,807.18c-5,4.81-8.77,9.91-12.9,14.63C80,836.6,67.82,852,54.68,866.59,41.84,880.87,19.2,880.65,6.2,864.33A24.78,24.78,0,0,1,.52,847.22C.7,845.13.12,843,.89,841c1-7.15,4.33-13,9-18.47,10.22-11.81,20.16-23.85,30.25-35.78Q52.57,772.07,65,757.47c3-3.54,6-7.11,9.6-11.43a54.3,54.3,0,0,1-4.83-3.83Q42,714.54,14.25,686.8c-10.75-10.7-14-29.51-.61-43.47,12.23-12.77,30.86-12.15,42.69-1.48,3.71,3.34,7.1,7,10.64,10.56l43.9,43.76c.94.93,1.91,1.83,3.36,3.21L251,537.8c-1.26-2.13-3-3.44-4.52-4.95q-13.82-13.75-27.67-27.47c-8.37-8.33-11.89-23.06-5.47-35.43,9.14-17.61,32.8-23.26,48.56-8.47,8.62,8.09,16.84,16.62,25.21,25,1.17,1.17,2.17,2.51,3.71,4.31L424,333.48c-6.77-6.77-13.43-13.5-20.16-20.14a30.92,30.92,0,0,1,.52-44.19c11.68-11,30.83-11.32,42.4.14,5.56,5.5,10.87,11.26,16.81,17.43l135.49-160c-.56-2.28-2.25-3.24-3.51-4.5Q567.51,94.1,539.33,66.08A30.21,30.21,0,0,1,530,43.3,30.59,30.59,0,0,1,554.64,14c11.14-2.26,20.68,1.12,28.61,9q26.3,26,52.39,52.23c1.17,1.17,2.13,2.57,3.44,4.18,4.88-5.7,9.29-10.8,13.65-15.95q12.56-14.84,25.07-29.71c6.33-7.49,12.72-14.93,19-22.43A28.75,28.75,0,0,1,714.94,1c2.92-1.23,6.15.41,9.06-1Z"/><path class="cls-2" d="M574,1407c-.53-1.67-2.23-1.33-3.34-1.67-13.55-4.22-23.56-17.32-21.52-34.09.8-6.59,4.11-12.13,8.41-17.18,14.56-17.08,29-34.25,43.5-51.37,4.71-5.56,9.49-11.07,14-16.28L483.53,1154.08c-4.45,5.18-8.79,10.19-13.08,15.23-7.23,8.48-14.51,16.91-21.6,25.49-3.41,4.13-6.88,8-11.62,10.76-18.92,10.85-41.94-1.41-45.37-20.58-1.88-10.51.88-19.23,7.65-27.14q19.45-22.74,38.72-45.63a13.94,13.94,0,0,0,1.07-1.74,20.74,20.74,0,0,0-6.06-6c.6-2.48,2.89-3,4.71-4.08,12.89-7.42,27.07-11,41.47-13.93a795.34,795.34,0,0,1,99.29-14.12q27.36-2.12,54.77-3c10.64-.37,21.29-1.08,31.92-.72,26.91.91,53.83,1.78,80.65,4.63,23.34,2.48,46.66,5,69.76,9.23,30.38,5.56,59.35,15,86,31,6,3.62,12.53,6.18,19,8.77,2.29.91,4.86,1.4,6.19,3.85,0,5,.34,9.91-1.3,14.79a30.82,30.82,0,0,1-51,12.26c-11.16-11-22.24-22.05-33.36-33.07-.7-.69-1.44-1.35-2.66-2.49q-69.77,82.13-138.94,164.05c.88,2.24,2.47,3.26,3.73,4.52q29.16,29.15,58.38,58.24c6.18,6.13,9.86,13.48,9.93,22.1.11,14-8.13,25.2-20.41,29.5-12.1,4.23-23,1.82-32.1-7.12-18.64-18.35-37-36.95-55.55-55.42-1.28-1.27-2.31-2.86-4.4-3.65-4.35,4.17-8,9.05-12,13.67-8.33,9.71-16.47,19.57-24.75,29.33q-10,11.78-20.14,23.45a27.54,27.54,0,0,1-18.37,9.84c-2.95,1.12-6.16-.45-9.09.89Z"/><path class="cls-3" d="M724,0c-.89,1.79-2.52.84-3.82,1-1.74.15-3.5,0-5.25,0A1.75,1.75,0,0,0,715,0Z"/><path class="cls-4" d="M575,1407c.88-1.82,2.53-.85,3.82-1a51.86,51.86,0,0,1,5.27.06,3.48,3.48,0,0,0-.09.89Z"/><path class="cls-5" d="M.86,848,0,848v-7q.45,0,.89,0Q.87,844.5.86,848Z"/><path class="cls-6" d="M927,1126.1c-12.55-4.29-24.23-10.3-35.76-16.85a191.89,191.89,0,0,0-36.85-15.6,357.41,357.41,0,0,0-39.66-9.81c-9.2-1.81-18.49-3-27.7-4.63-6.8-1.22-13.77-1.48-20.65-2.27-7.85-.89-15.67-2-23.53-2.82-3.94-.43-7.94-.71-11.85-.87-7-.28-13.88-1.05-20.82-1.45-10.29-.59-20.62-.17-30.83-1.08a289.7,289.7,0,0,0-36.85-.45c-8.95.34-17.94,0-26.83.92-6,.6-12,.2-17.84,1-9.82,1.26-19.73,1.31-29.57,2.59-4.54.59-9.22.88-13.8,1.38-6.69.72-13.4,1.39-20.07,2.51-5,.84-10.09,1.55-15.14,2.18s-9.78,1.43-14.63,2.29c-10,1.77-20,4.06-30,5.89a129.12,129.12,0,0,0-41.43,15.53c-9.14,4.7-18.21,9.52-27.43,14.06-11,5.44-22.61,9.53-34.84,11.05-6.88.85-13.9,1.15-20.82-.47-12.46-2.91-18-11.64-19-23.61-.15-1.82-.1-3.66-.1-5.49q0-37.7,0-75.39c0-8.6-1.17-10.78-10.78-10.51-15.85.44-31.14,3.94-46,9.28a21.17,21.17,0,0,0-5.87,2.6c-4.74.44-8.52,3.4-12.7,5-4.66-2.09-5.6-4.28-4.32-9.6a75.82,75.82,0,0,1,4.59-13c4.61-10.37,11.1-19.47,18.24-28.24,3.57-4.38,7.67-8.24,11.24-12.61a51.52,51.52,0,0,1,9.25-8.25,41.13,41.13,0,0,0,5.19-4.74c1.13-4.24-1.57-6.9-4.33-9.21a89.77,89.77,0,0,1-11.89-11.95c-3.25-4-7.05-7.47-10.31-11.48-12.05-14.85-22.32-30.75-29.61-48.49-.88-2.14-2-4.2-3-6.26s-.89-3.84,1-5.31c1.69-1.34,3.22-1,5,.17a166.26,166.26,0,0,0,45.66,21.12,151.13,151.13,0,0,0,20.27,4.05c8.64,1.27,17.24.44,25.85.8a7.07,7.07,0,0,0,5.47-1.66c.47-1.4-.31-2.25-1.17-3.1-1.78-1.75-3.47-3.6-5.32-5.28a12.91,12.91,0,0,1-4.38-8.38c6.66-10.82,18.1-14.76,30.25-18.1l-6.29-11.21c-16.27,2.13-29.48-3.28-40.64-14.4-1.89-1.88-3.82-3.72-5.62-5.69-3.64-4-3.57-7.14.45-10.68,5.07-4.46,11.21-6.92,17.7-8.42,2.86-.66,5.84-.85,9-1.28.6-3.15-2.24-5.14-2.15-7.76a10.05,10.05,0,0,0-4.72-2q-23.07-4.28-30.23-26.67c-1.24-3.88-.41-5.89,3.09-7.71a16.32,16.32,0,0,1,5.13-1.71c4.53-.71,8.95-2.11,13.47-1.93,1-1.64-.72-2.66-.39-4-.78-1.91-.67-4.12-2-5.83-13.86-4.44-22.12-14.08-24.69-28.13-1.74-9.5,2.66-15.44,12.72-12.17a7.15,7.15,0,0,0,2,.07c2-.74,2-2.41,1.84-4.12-.28-4.12-.25-8.32-3-11.81-.79-.86-1-2-1.75-2.93-7.21-6.88-12-14.94-13.21-25.09a27.79,27.79,0,0,1,.05-7.17c.95-6.88,2.87-8.71,9.91-8.77a9.74,9.74,0,0,1,5.35.25c0-.21-.22-.51-.16-.83,1.56-8-.89-15-5-21.64-.76-2.15-1.58-4.27-2.28-6.44-2.69-8.37-2.32-16.77-.36-25.22A8,8,0,0,1,307,582c2.27-1.93,4.36.46,6.81.43,1.18-6.87,4-13.54-.81-20.16-1.22-1.7-1.33-4.06-1.07-6.26-1.2-4.71-1.08-9.52-.88-14.3A44.12,44.12,0,0,1,313,530.55a11.41,11.41,0,0,1,7.92-8.1c1.89-2.83,4.43-.89,6.88-.78,2-3.89,3.09-7.83,2.26-12.3-.56-3-1.31-6.12-.84-9.29,1.05-1.89.73-4.16,1.69-6.07.15-4,2.47-7.24,4.22-10.65.59-1.16,1.26-2.27,1.89-3.41s1.42-2.43,2.75-2.74c10.44-2.44,10.94-11.5,12.68-19.45.76-3.46,0-7.25,1.44-10.71,1.44-4.64,2.51-9.44,5-13.67,1.56-2.65,3.16-5.46,6.91-5.4,1.9-1.16,3.39,1,5.74.57,3.72-6.2,8.68-12,11.87-19a47,47,0,0,1,12-15.6,98.82,98.82,0,0,0,18.72-23,39.24,39.24,0,0,1,4.48-5,12.43,12.43,0,0,1,3.54-2.91l.83-.78c9.13-6,16.57-14.11,25.25-20.69,1.81-1.29,3.43-2.81,5.22-4.13,1.81-1.09,3.28-2.71,5.34-3.41a316.13,316.13,0,0,1,41.5-27.46c9.62-5.45,19.63-10.23,29.77-14.73,9-4,18.35-7.19,27.91-10.85-3.18-4.75-8.39-7.39-10.72-12.31.65-1.32.88-2.71,3-3.71h28.18c10,0,20,0,30,.08,3.51,0,6.53-1.21,7.9-4.18,1.26-2.73,2.33-6,1.43-9.09a22.51,22.51,0,0,1-.63-6.38c-.05-6.5-.49-13,.09-19.48.86-9.58.58-19.18.82-28.49,2.32-2.18,4.17-1.88,5.94,0,8.16,8.75,17.37,16.49,25,25.81a80.81,80.81,0,0,0,6.3,6.42c2,2,4.4,2.88,8.08,1.88,10.55-12.77,23.36-24.29,35-36.57,3.77.87,4.64,3.08,4.63,6,0,13,.3,26-.18,39-.18,4.93-.7,9.88-.69,14.84,0,7.65,2.56,10.22,10.06,10.24,11.49,0,23,.2,34.47-.06,6-.13,11.85,1.16,17.84,1,3.79-.09,4.66,1.54,4.25,7.91L760.29,281c5.9,2.17,11.13,4,16.25,6,17.5,7,34.6,14.69,50.32,25.23,3.8,2.55,8,4.53,12,6.77,3,1.61,5.71,3.61,8.61,5.35,3.35,2.39,6.76,4.7,10.06,7.17,10.84,7.45,20.47,16.37,30.27,25.07a26.82,26.82,0,0,0,6.41,4.6,17.8,17.8,0,0,1,7.84,7.43c5.72,10.08,13.7,18.41,21.68,26.52,6.46,6.57,10,14.82,15.42,21.93a119.25,119.25,0,0,1,7.63,11.69c2.33-.09,4.52-1.64,6.83-.37A12.85,12.85,0,0,1,957,432a33.33,33.33,0,0,1,5.13,10c3,2.52,3.58,6,3.16,9.51-1,8.49,3.08,15.43,6.32,22.67a4.76,4.76,0,0,0,4.18,3c3.66.37,6,2.71,7.6,5.78,3.59,7.1,5.62,14.63,4.15,22.59-1.13,6.13.66,11.4,3.32,16.79,3.35.26,7.32-1.8,9.29,2.59,4,6.81,5.75,14.32,6.79,22.05-1.06,1.77.23,3.5.07,5.25a22,22,0,0,1-2.56,10.56c-3.34,6.41-1.52,12.51.18,18.77,3,.91,6.43-.48,8.55,2.41,3.14,2,3.81,5.11,3.87,8.49.13,6.93.85,13.9-1.12,20.73a32.42,32.42,0,0,1-4.47,11.95c-3.34,5.12-1.83,10.8-1.93,16.24,2.35.86,4.72-.35,6.53,1.3,4.57,1.19,6.66,3.72,7,8.23.69,9.36-1.3,18-6.84,25.68-1.15,1.6-2.1,3.33-3.14,5-2.75,4.72-6.74,8.79-6.71,14.87,0,3,.31,5.21,3.81,5.55a54.32,54.32,0,0,0,5.8,1c4.25.28,6.21,2.51,6.09,6.74a35.79,35.79,0,0,1-9.16,22.85,47,47,0,0,1-13.76,11.08c-1.69,2.82-3.57,5.6-2.2,9.16a39.79,39.79,0,0,1,12.15,1.94,11.83,11.83,0,0,1,6.68,4.7c1.25,12.52-10.76,29.63-32.64,31.89a30,30,0,0,0-3.1,9c13.14,2.73,22.83,7.36,27.7,13.16,1.27,3.73-.57,6.52-2.86,9-8,8.59-17.15,15.68-29,17.92-4.57.86-9.28,2.71-14,.42-4,3.09-4.49,8.18-7.58,11.69,3,1.9,6.44,2.06,9.51,3.2a42.27,42.27,0,0,1,17,11.62c3.74,4.17,3.05,9.05-1.43,12.49-2.75,2.11-5.46,4.27-8.16,6.44a6.39,6.39,0,0,0-.92,1.29,146.34,146.34,0,0,0,33.69,1.24,118.29,118.29,0,0,0,53.13-16.69c5.41-1.72,10.18-4.69,14.9-7.74,1.54-1,3-2.06,4.71-2.36,3.8,2.48,4.1,3.17,2.48,6.75-2.59,5.72-5.29,11.38-7.94,17.07.26,3.76-2.1,6.54-3.77,9.5a217.71,217.71,0,0,1-28.08,38.36c-1.22,1.36-2.45,2.72-4.38,3.08-3.58,3.22-7.19,6.38-10.7,9.67a16.53,16.53,0,0,0-2.73,3.54,6,6,0,0,0,.67,7.73,40.33,40.33,0,0,0,5,4.87c12.18,10.05,21.87,22.2,30.25,35.5a133.31,133.31,0,0,1,10.19,20.46c1.34,3.26,2,6.68.16,10.09-1.53,2.8-3.55,3.78-6.59,2.92a14.91,14.91,0,0,1-3.66-1.52c-9.8-5.94-20.9-8.18-31.75-11.06a138.74,138.74,0,0,0-27-3.95,22.5,22.5,0,0,0-4,.05c-5.55.65-7.84,3.19-8.08,8.82,0,.17,0,.33,0,.5.37,21-1.1,41.9-.66,62.86.08,3.65,1,7.22.68,10.9-.42,4.78-.66,9.63-2.16,14.19-3.88,11.76-11.66,17.55-24.39,18.57-10.74.85-21.13-1.18-31.33-4.41C928.28,1126.36,927.63,1126.25,927,1126.1Z"/><path class="cls-7" d="M1035,936.81c5.23-6.36,11-12.25,16-18.82a216.9,216.9,0,0,0,20.24-32.11q15.77,15.59,31.54,31.19a29.67,29.67,0,0,1,9.12,24.29,30.75,30.75,0,0,1-24.5,27.7c-11.41,2.22-20.84-1.32-28.93-9.2C1050.6,952.22,1042.81,944.5,1035,936.81Z"/><path class="cls-8" d="M953.88,429.15c-2.59-.67-4.93,0-7.34,1.56-4.94-8.7-11.58-16.2-15.93-25.2a16.37,16.37,0,0,0-4.07-5.64c-7.77-6.41-13-15.11-20.1-22.15-2.14-2.13-3.23-5-4.84-7.51-2.43-3.78-4.7-7.7-9.82-8.46-.85-.13-1.65-1.07-2.35-1.76C879.17,350,868.07,341,857,332c-.18-1,.13-1.43,1.18-1.13,9.82,6,18.7,13.18,27.51,20.47a316.49,316.49,0,0,1,30.91,28.94C930.66,395.56,944,411.39,955.12,429A.84.84,0,0,1,953.88,429.15Z"/><path class="cls-8" d="M1000.11,525c-4.12-2.42-4.12-2.42-10.07.23-2.36-6.74-5.46-13-3.91-20.7,1.59-7.88-.81-15.34-4.72-22.24-1.95-3.44-4.9-4.72-8.86-3.12-2.72-5.73-5.27-11.27-8-16.73-1-1.94-.59-3.89-.64-5.85-.13-4.92.59-9.94-1.82-14.57,1.48-.34,2.1.72,2.68,1.72A402.42,402.42,0,0,1,987,487.59c4.54,10.66,8.61,21.49,12.11,32.54A15,15,0,0,1,1000.11,525Z"/><path class="cls-9" d="M415,371c-1.82,5.33-5.54,9.4-9.18,13.46-4,4.44-7.39,9.35-12.42,12.88a21.64,21.64,0,0,0-7.24,9.41c-3.49,8.38-9.24,15.31-13.95,22.9-.17.28-.38.54-.7,1L365.84,428c3-5.56,6.85-10.53,10.61-15.55a374.19,374.19,0,0,1,36.37-41.56A10.56,10.56,0,0,1,414,370C414.93,369.73,415.35,370,415,371Z"/><path class="cls-9" d="M1013.14,584c-1.66,0-3.08-1.17-4.82-.9-1.59.24-3,1.38-5.05.63-.73-4-1.51-8.21-2.24-12.4a9.51,9.51,0,0,1,1.13-6.67,35.78,35.78,0,0,0,4-12.63,1,1,0,0,1,1.69,0c1.66,8.67,3.37,17.34,5,26A48.7,48.7,0,0,1,1013.14,584Z"/><path class="cls-10" d="M353.93,447.06c0,4.28,0,8.57.1,12.85a8.69,8.69,0,0,1-1.06,4.23c-2.25,4.55-4.48,9.11-6.83,13.89-3.18-.32-6.5-.76-9.08,1.93,1.19-5.22,3.93-9.79,6.36-14.45C346.7,459.25,349.71,452.8,353.93,447.06Z"/><path class="cls-11" d="M1016,642.71c-2.47.19-5,0-8,.93-.07-5-.15-9.91-.16-14.79a3.13,3.13,0,0,1,.65-1.82c3.32-4.14,5-9.17,7.35-13.8a211.54,211.54,0,0,1,.91,24.7C1016.75,639.56,1017.1,641.25,1016,642.71Z"/><path class="cls-12" d="M312,556c1.69,4.28,2.82,8.83,5.82,12.19l-3,16.39c-2.74-1-5-2.63-7.75-2.59C308.38,573.25,309.17,564.43,312,556Z"/><path class="cls-12" d="M330.09,500.12c.64,3.57.6,7.25,1.79,10.75a6.84,6.84,0,0,1-.3,4.89c-1.1,2.57-1.43,5.45-3,7.9-2.45-1.19-4.9-2.16-7.63-1.2a7.25,7.25,0,0,1,.43-3.42q3.94-10.95,7.82-21.91C331.51,497.52,330.24,499,330.09,500.12Z"/><path class="cls-13" d="M304,619.85c2.4,2.72,4,6.09,6.87,8.57l-1,15.38c-2-1.23-4.31-.17-6.08-1.73C302.49,634.64,303.64,627.25,304,619.85Z"/><path class="cls-14" d="M1010.13,702.06c-1.41,1.34-3.08.55-4.83.85-1.22-5,.94-9.59.74-13.83l7-7.45C1012.94,688.57,1011.27,695.28,1010.13,702.06Z"/><path class="cls-15" d="M449,341.89c-6.09,5.39-12.31,10.65-18.21,16.25a18.77,18.77,0,0,1-7.75,4.1c2.19-4.26,6.43-6.43,9.83-9.42a126.9,126.9,0,0,1,15.09-11.86C448.91,340.55,449.07,341.07,449,341.89Z"/><path class="cls-16" d="M309.06,684.95c2.11,1,2.76,2.66,3.19,5,.78,4.16.34,8.41,1.5,12.4-1.55,1.12-2.61-.06-3.78-.39-.53-4.64-2.15-9.11-2.07-13.84C307.69,686.83,306.56,685.23,309.06,684.95Z"/><path class="cls-17" d="M858.16,330.89A1.42,1.42,0,0,0,857,332c-3.67-1.87-6.67-4.69-10-7.09-.21-.87,0-1.35,1-.94A51.37,51.37,0,0,1,858.16,330.89Z"/><path class="cls-18" d="M996.89,752.89h-2c1.36-3.23-.09-7.34,4.15-9.16C999.4,747,997.09,749.71,996.89,752.89Z"/><path class="cls-19" d="M848,324a1,1,0,0,0-1,.94c-2.8-1.86-5.92-3.28-8.17-5.91C842.53,319.52,845.11,322,848,324Z"/><path class="cls-20" d="M449,341.89a1.18,1.18,0,0,0-1-.94c1.25-1.89,3.35-2.68,5.07-4,1-.41,1.2.07,1,.94C452.17,339.07,451,341,449,341.89Z"/><path class="cls-21" d="M415,371a1.17,1.17,0,0,0-1-1,10.83,10.83,0,0,1,4-4c.35-.42.69-.4,1,0Z"/><path class="cls-22" d="M454,337.92a1,1,0,0,0-1-.94c1.83-1.21,3.12-3.48,5.83-3A23.11,23.11,0,0,1,454,337.92Z"/><path class="cls-23" d="M1007.81,552.07l-1.69,0c.07-1.7-.8-3.54.77-5C1006.49,548.84,1008.21,550.27,1007.81,552.07Z"/><path class="cls-24" d="M330.09,500.12c-.39-1,.47-2.32-.9-3,.38-1.15.49-2.45,1.75-3.1C330.84,496.08,331.56,498.25,330.09,500.12Z"/><path class="cls-25" d="M320,742.18c2.29,1.38,2.05,3.64,2,5.83A8.38,8.38,0,0,1,320,742.18Z"/><path class="cls-26" d="M419,366h-1c1-1.56,2-3.15,4.18-3A7.55,7.55,0,0,1,419,366Z"/><path class="cls-27" d="M309.06,684.95c-1.66.59-.78,2.1-1.16,3.16-1.51-1.46-.71-3.32-.84-5A3.1,3.1,0,0,1,309.06,684.95Z"/><path class="cls-28" d="M953.88,429.15l1.24-.15a2.84,2.84,0,0,1,1.84,3A8.38,8.38,0,0,1,953.88,429.15Z"/><path class="cls-29" d="M366.12,537.09c-.43,2.88.56,5.62,1.05,8.37.62,3.52,4.14,5.8,7.91,5.35a40.14,40.14,0,0,0,34.82-31.68c.77-3.53,1.38-7.13.24-10.82s-3.53-5.64-7.35-5c-11.47,2-21.55,6.58-29.16,15.74-.6.72-.86,1.89-2.16,1.8-.11-12.52,31-70.87,46.43-86.91,1.65.72,1,2.25,1.12,3.43.52,5.72,2.25,7.84,7.83,8.43a32.6,32.6,0,0,0,25.87-8c4.07-3.55,7.32-7.71,8.85-13,1.73-6,.14-8.56-5.91-10.11-5.53-1.41-10.92-.39-16.25.73-2.25.47-4.62.17-7.13,2a7.35,7.35,0,0,1,2.63-5.84c11.84-11.7,23.08-24,35.86-34.76,3.69-3.09,7.57-6,11.38-8.9,1.58-1.22,3.3-2.29,3.74-4.36-.17-2.08-2.05-3-3.09-4.58,2.44-2.53,4.93-4.74,7-7.32,5.15-6.47,7.69-13.7,6.47-22.18a8.35,8.35,0,0,0-4.94-7A321.86,321.86,0,0,1,566,288l13.91,12.56a12.86,12.86,0,0,1,1.07,1.05c4,4.55,3.92,7.87-.48,12.07-3.49,3.33-7,6.64-10.75,9.7-7.34,6-13.43,13.39-20.76,19.44a9.55,9.55,0,0,0-1.69,2.76c.59,4,3.23,4.31,6.31,4.3,16.83-.05,33.66,0,50.5,0,1.83,0,3.67,0,5.5.1,5.42.3,7.15,2,7.49,7.22.13,2,.14,4,.14,6,0,13.33.06,26.66,0,40,0,3.44.75,6.86,0,10.35a4.4,4.4,0,0,0,2.44,5c2.12,1,4,0,5.44-1.38,2.54-2.62,4.84-5.47,7.18-8.29,6.92-8.36,15-15.61,22.56-23.35,3.79-3.88,6.93-3.71,10.71.28,5.6,5.92,11,12,16.42,18.12,4.6,5.26,9.87,9.89,14.13,15.47a7.37,7.37,0,0,0,1.77,1.33c1.74.22,2.82-.49,4-1.62a20.52,20.52,0,0,0,.21-2.23q0-28-.12-56a33.64,33.64,0,0,1,.06-4c.48-4.09,3-6.7,7.16-7,3.81-.25,7.66-.1,11.49-.08,15.33.06,30.66.09,46,.23,2.66,0,4.56-.64,5.22-3.42-.32-2.25-2.15-3.31-3.57-4.65q-13.44-12.66-26.92-25.29c-1.21-1.14-2.43-2.28-3.56-3.51-4-4.39-4-8.32.32-12.64,2.34-2.35,4.94-4.45,7.45-6.63,2.26-2,4.55-3.88,6.92-5.89a323.53,323.53,0,0,1,74.33,34.46c-5.84,3.61-6.24,8.87-5.28,14.82a29.49,29.49,0,0,0,6.28,14.41A20.29,20.29,0,0,0,839.41,359c4.93,1.11,8-1,8.56-6.09a26.46,26.46,0,0,0-2.23-13.61c-.55-1.3-1.53-2.45-1.66-4.58,5,2.37,8.48,5.83,12.39,8.68-7,12-1.5,28,5.64,34.39a15.67,15.67,0,0,0,2.74,2.14c6.09,3.38,12,.54,12.85-6.33a35.9,35.9,0,0,0-.58-12.7l5.86,5.61c.49,3.65-.8,6.82-1.3,10.06-1.8,11.55.93,21.39,10.32,28.88a14.44,14.44,0,0,0,2.51,1.61c4.14,2.08,7.07,1.1,8.92-3.11.8-1.81,1.08-3.85,1.94-5.62s.15-3.73,2-5.44a19.9,19.9,0,0,1,5,5.94,59.38,59.38,0,0,0-3.34,21c.18,9.89,4.52,17.52,12.54,23.1,5,3.46,8.68,2.21,10.78-3.53,1.08-3,2-6,3-9a40.77,40.77,0,0,1,4.9,7.66c-.86,2.3-1.84,4.57-2.56,6.92-3.17,10.32-3.39,20.56,1.49,30.46,1.95,3.95,4.83,7.14,9.27,8.57,5.93-1.27,6.83-7.34,10.77-11.05,2.8,4,3.92,8.6,6.08,12.46-10.49,19.23-8.73,14-10.65,34.53-1.65-1.32-2.05-3.1-2.7-4.76-10.68-27.13-24-52.88-40.8-76.74a380.75,380.75,0,0,0-29.76-36.82,311.07,311.07,0,0,0-43.29-39c-3.22-2.42-3.84-2.25-5.84,1.36,1.36,3.84,4.65,6,7.66,8.25,14.87,11.14,27.51,24.63,40.42,37.84a13.66,13.66,0,0,1,4.31,7.89A96.54,96.54,0,0,0,869,414.57a15.12,15.12,0,0,0-11.61,3.17,5.35,5.35,0,0,0-2,6.59c3.33,9.49,13.79,22,28.23,21.68,2.33,0,4.67.13,7,0,5.16-.22,7.35-2.16,8.5-7.3a13.88,13.88,0,0,1,.53-1.91c.11-.28.43-.48.65-.72,6.94,6.58,18.62,25,20.23,32.13-4-2.44-7.67-4.94-11.68-6.88a50.36,50.36,0,0,0-14.27-4.07,9.3,9.3,0,0,0-3.95.34c-3.69,1-4.84,2.12-4.55,6,.81,10.9,5.17,19.82,15.07,25.36a48.46,48.46,0,0,0,12.07,4.52,9.27,9.27,0,0,0,10.72-4.37,32.6,32.6,0,0,0,3.47-7.7c5.58,5,16.14,28.82,16.46,37.52-2.2-1.76-4.23-3.31-6.18-4.95-6-5-13.08-7.91-20.54-9.64-6.39-1.49-10,.31-10.32,8-.72,15.54,9.54,29.42,22.65,35,3.66,1.56,7.24,3.25,11.21,4,4.78.9,8.78-.35,10.15-6,.43-1.74,1-3.46,1.62-5.67,2.39,4,3.17,8.13,4.21,12,4.23,15.85,7.88,31.81,9.6,48.19.84,7.93,1.43,15.86,2.07,23.8a323.26,323.26,0,0,1,.47,36.92c-.38,11.09-1.26,22.17-2.57,33.22a375.81,375.81,0,0,1-10,52.15,345.47,345.47,0,0,1-46,101.5c-4.17,6.21-8.47,12.32-12.54,18.59A12.45,12.45,0,0,1,886,872.23c-3.42-.15-7.09.45-9.54-2.48a5.37,5.37,0,0,1-.42-3.69c1.1-4.85.05-9.52-1-14.19a85,85,0,0,0-6.19-18.33,12.13,12.13,0,0,0-3.63-4.7c-2.18-1.59-5.62-1.45-8.27,1-7.79,7.05-15.32,14.31-18.31,25-2.35,8.36-8,13.15-16.68,14.21a25.84,25.84,0,0,0-11.47,4.53c-6.33,4.32-12.36,9-17,15.25a27.53,27.53,0,0,1-3.41,3.65c-2.7,2.49-3.5,2.39-6.71-.74.6-1.71,2.1-2.79,3.41-4,19.15-17.25,34.51-37.3,44.86-61A143.73,143.73,0,0,0,842,789.51a218.17,218.17,0,0,0,1.85-31.3q0-154,0-308c0-3.35.12-6.7-2.23-9.61-2.51-1.74-5.51-1.63-8.51-1.63-38.33,0-76.66.35-115-.18-75.13-1-150.26-.43-225.39-.69a28.29,28.29,0,0,0-5,.2c-4,.71-5.35,2.23-5.71,6.31-.12,1.32-.09,2.66-.09,4q0,83,.11,166c0,27-.44,54,.29,81,.71,26.48.11,52.94.56,79.41.18,10.56,2.85,20.66,5.53,30.74a175.63,175.63,0,0,0,21.56,49.5,154.64,154.64,0,0,0,23.56,29c1,.92,1.9,1.86,2.78,2.86a4.61,4.61,0,0,1,.58,1.29c-2.45,3.88-5.5,4.88-9.1,2.93a14.54,14.54,0,0,1-4.59-3.8c-4-5.16-9.17-9.15-14.32-13.06-6.17-4.68-13-7.92-20.9-8.52-4.36-.33-6.72-3.36-8-7.23a62.92,62.92,0,0,0-10.17-18.72,69.27,69.27,0,0,0-9.61-10.14c-4.66-4.06-8.76-3.5-12,1.88A63.28,63.28,0,0,0,441,851.6a68.78,68.78,0,0,0-1,13.88c0,3.7-1.45,5.72-5,6.32-5.67,1-10.74.22-14.77-4.76a282.73,282.73,0,0,1-24-34.86c-14.41-24.53-26.23-50.25-34.39-77.57a330,330,0,0,1-10-44.54,359,359,0,0,1-4.2-49.09c-.07-4.79-.83-9.63-.46-14.41,1.08-13.9,1-27.85,2.5-41.75a325.09,325.09,0,0,1,9.24-50.26c1.79-6.56,4.07-12.95,6.32-19.35C367.05,535.12,366.38,536.2,366.12,537.09Z"/><path class="cls-30" d="M579.13,604.88l-77,.08c-1.32,0-2.71.22-3.86-1.43V457.45a3.39,3.39,0,0,1,3.39-1.43c1.17,0,2.33,0,3.5,0H826.76V604.2a4,4,0,0,1-.35.38c-.12.1-.27.25-.4.25l-84,.09c-1.49-2.09.09-3.8.78-5.56,3.7-9.46,7.37-18.91,9-29a89.58,89.58,0,0,0-1.26-33.23c-2.05-9.43-3.91-18.91-6.61-28.2a26.29,26.29,0,0,0-7.53-12.13c-4.43-4.14-9.64-5.73-15.19-3.45a86.08,86.08,0,0,1-31.57,6.32,25.07,25.07,0,0,0-19.47,9.91,43.68,43.68,0,0,1-18.31,14.16c-6.51,2.61-8.65,7.85-6.42,13.58,1.7,4.37,4.58,5.85,9.08,4.57,3.06-.88,5.75-2.63,8.68-3.81,2.3-.93,5.08-2.23,6.45,1s-.35,5.48-3.31,6.8a35.24,35.24,0,0,1-6.76,1.73,7.23,7.23,0,0,0-4.66,2.65c-2.48,3.5-.87,7.48,3.52,8.2,3.8.62,7.61.07,11.43-.35s7.92-1.54,11.34,1.83c-.34,3.2-2.74,4.08-5,5.07a140,140,0,0,0-33.69,20.26c-6.88,5.69-12,12.91-17.77,19.53a3.64,3.64,0,0,1-3.71.55c-1.49-2.21.16-3.82,1.22-5.37a91.78,91.78,0,0,0,7.17-12.54c2.43-5.16,1.72-7.52-3.59-9.8a159.37,159.37,0,0,1-18.91-10.08,28,28,0,0,1-13.12-18c-1.25-5-2.43-10-4.83-14.65-2.81-5.41-6.83-7.37-12.77-6-9.58,2.19-16.39,7.77-20.1,17-2.44,6.05-1.16,10.76,4.43,14.17a10.3,10.3,0,0,1,5.21,8c1.44,11.49,6.73,21.48,12.06,31.48C578.71,601.11,580.34,602.66,579.13,604.88Z"/><path class="cls-31" d="M624,604.07c14.08-20.86,34.4-33.57,57.72-42.85-2.69-2.94-5.24-2.49-7.61-2.36-4.63.25-9.17,1.46-13.87,1.18-5.37-.32-7.66-1.77-8-5.59-.35-4.25,2.12-7.25,6.87-8.3,1.94-.43,3.92-.67,5.85-1.17,3.65-.94,4.07-1.67,3.92-6.1-1.31-1.24-2.68-.86-4.11-.18-2.69,1.29-5.39,2.57-8.11,3.81-6.91,3.15-11.7.76-13.12-6.78-.88-4.68.34-10.3,5.31-12.06,9-3.19,15.84-9.14,21.82-16.63,5-6.24,12.49-8.6,20.4-8.88,6.31-.23,12.59-.4,18.74-2.05a51.15,51.15,0,0,0,6.87-2.85c6-2.6,12.24-3.67,18,.36a24.71,24.71,0,0,1,10.14,13.81c3.66,13.42,7.12,26.93,8.75,40.74a84,84,0,0,1-5,39.66c-2.15,5.72-4.42,11.4-6.64,17.1a38.37,38.37,0,0,0-3.93,8.31c.49,2-.62,3.54-1.41,5.16-5.38,11.06-10.62,22.2-17.44,32.47-4.19,6.32-4.75,12.44-.86,19.11,6.24,10.69,8,22.8,10.35,34.68a94.84,94.84,0,0,0,8.49,23.87,244.73,244.73,0,0,1,11.33,27.65c.64,1.82,1.75,3.67.68,5.73.83,2.7,1.33,5.52,2.78,8,2.18,2.48,2.65,5.7,3.64,8.67a77.58,77.58,0,0,0,11.79,23,106.58,106.58,0,0,1,9.16,14.85c2.14,4,1.75,7.42-1.52,10.85C765.5,837.32,754,845,743,853.37c-3.63,2.75-7.89,2.69-11.73.23-5.13-3.29-9.28-7.59-11.49-13.42-1.71-4.5-1.72-8.8,2.18-12.37,1.51-1.38,2.95-2.86,2.05-5.17a5.12,5.12,0,0,0-5.5-3.52c-7.07,1-11.8-2.68-16.95-6.69-14.6-11.38-26.12-25-33.31-42.2-1-2.76-1.73-5.62-3.23-8.18a21.43,21.43,0,0,0-5.45-7.08c-10-9-16.85-20.08-21.65-32.54a61.17,61.17,0,0,0-8.09-14.87,49,49,0,0,1-8.64-17.86c-.78-3.18-1.5-6.49-3.65-9.34-3.61-.59-5.43,1.75-7.13,4.28C606,691.25,601.24,693,593.8,690c-8-3.27-16.12-6.41-23.84-10.28-8.74-4.38-15.45-11.1-18.23-20.82a14.26,14.26,0,0,1,13.33-18.13c6.81-.24,13.62.21,20.37-1.44a71.76,71.76,0,0,0,19.37-7.83c6.94-4.05,11.26-10.22,14-17.62C620,610.35,621.3,606.83,624,604.07Z"/><path class="cls-32" d="M669,769.87c1.72,1.86,2.41,4.3,3.51,6.5a90.34,90.34,0,0,0,24.5,30.36c2.84,2.3,5.69,4.62,8.31,7.15a13.49,13.49,0,0,0,11.76,4c5.86-.74,8.91,2.25,8.73,8.27-1,.8-2,1.6-3,2.48-3.18,2.89-4,6.23-2.41,10.32A27.8,27.8,0,0,0,733,853.28a7.77,7.77,0,0,0,8.91-.63c6.85-5.24,13.66-10.55,20.61-15.65a99.47,99.47,0,0,0,11.8-10.73c3.28-3.33,3.6-4.84,1.46-8.83A125.47,125.47,0,0,0,765.51,801c-7-9.27-11-19.88-13.49-31.12h74.43c1.45,5.31,0,10.06-.71,14.68a147.73,147.73,0,0,1-10.24,36.6,153.59,153.59,0,0,1-21.12,35.87c-23.63,29.73-54.13,48.64-90.84,58.07a169.37,169.37,0,0,1-127.84-18.65,157.81,157.81,0,0,1-30.81-23.43c-21.18-20.93-36-45.7-42.89-74.88-1.72-7.24-2.8-14.58-3.8-21.94-.26-1.9-.6-4,1.15-6.38h91.51c2.13,2.07,1.84,4.93,2.21,7.47a107.89,107.89,0,0,0,10,32.79,19.47,19.47,0,0,1,1.71,4.14c1.11,4.72-1.23,7.29-5.85,6a18.53,18.53,0,0,0-11.26.29c-2.68.91-4.45,2.84-4,5.6,1.36,8.89,3.37,17.6,9.17,24.3a3.66,3.66,0,0,0,3.9-.35c5.86-4.49,12.62-4.19,19.14-2.91,9.1,1.78,16.36.11,21.76-8,2.11-3.15,5.4-5.41,7.87-8.33A36.27,36.27,0,0,0,652,819.21c5.1-14.68,8.68-29.68,9.69-45.23.11-1.65.08-3.37,1.57-4.56A5.3,5.3,0,0,1,669,769.87Z"/><path class="cls-33" d="M619.91,613.88c-2.28,8.7-7.7,14.93-15.34,19.38A62.84,62.84,0,0,1,566.8,642c-7-.61-12.87,4.07-14.21,11.13a14.06,14.06,0,0,0,1.62,9.14,34.8,34.8,0,0,0,17.62,16.95c7.32,3.14,14.71,6.14,21.9,9.58a13.32,13.32,0,0,0,7.27,1.34c3.56-.38,6.56-2,7.86-5.29,1.77-4.51,5.22-6.11,9.88-7,1.37,4.12,3,8.12,4,12.25a44.89,44.89,0,0,0,8.3,16.86,52,52,0,0,1,7.73,13.9c5,13.28,12.31,25,23,34.49,2,1.77,3.85,3.69,4.38,6.48-.9,1.24-2.19,1.28-3.53,1.16-10.46-9.43-21-18.8-26.51-32.32-1.75-4.32-3.57-8.61-5.09-13a13.21,13.21,0,0,0-6.19-7.85c-1.78.36-2.24,1.72-2.9,2.83-7.67,13.07-15.85,25.81-24.76,38.07-2.56,3.53-3.07,8.09-6.27,11.18H499.4c-.41-.49-.53-.61-.63-.75s-.25-.26-.27-.41a16.24,16.24,0,0,1-.31-2.44q0-71.69.08-143.39c0-.29.28-.59.47-1,1.52-1.39,3.45-.73,5.2-.74q37.47-.07,74.95,0c1.83,0,3.66-.08,5.49-.12,5,2.19,6.6,7.51,10.27,10.93,1.54,1.43,2.53,3.44,4.82,4.27,4.66-2.13,6.77-6.68,9.93-10.15,1.65-1.82,2.83-4.1,5.33-5C616.55,612.72,618.36,612.47,619.91,613.88Z"/><path class="cls-33" d="M749.25,761.91a356.91,356.91,0,0,0-16.06-39c-4.54-9.3-6.37-19.48-8.15-29.61-1.35-7.73-3.56-15.22-7.58-22-4.32-7.24-4-13.91.54-20.93a250.31,250.31,0,0,0,17.4-32.4c.75-1.64,1.79-3.15,2.7-4.72h88.65v148a2.54,2.54,0,0,1-.21.23c-.12.11-.25.31-.38.31Z"/><path class="cls-31" d="M591,761.89c1.28-5.61,4.06-10.45,7.46-15,8.62-11.62,16.07-24,23.47-36.41.67-1.12,1.09-2.44,2.5-3.21,4.46,2.68,6.9,6.86,8.52,11.67a95.74,95.74,0,0,0,8.68,19.5A56.21,56.21,0,0,0,656,754.77c2.61,1.93,4.3,4.54,6,7.19,2,2.4,3.08,5,1.17,7.94-.4,17.35-4.4,34-10,50.28A33.65,33.65,0,0,1,647.18,831c-4.17,4.95-8.55,9.74-13.14,14.29-3.26,3.23-7.31,4.48-12.15,4-4.11-.44-8.13-1.42-12.31-1.5-4.67-.09-8.79.79-12.54,3.74-3.13,2.46-4.11,2-6.28-1.06-4.91-6.93-6.91-14.94-8.6-23-.94-4.48,1.09-7.15,5.63-8.41,4.07-1.12,8.13-1.72,12.08.36a2.94,2.94,0,0,0,4-.67c.77-2.12.07-4-.89-5.74a108.59,108.59,0,0,1-10.47-30.3c-.85-4.19-1.1-8.51-1.62-12.78Z"/><path class="cls-31" d="M614.21,613.83c-4.49,5.45-8.46,11.36-13.38,16-2.82.2-4-1.56-5.21-3-3.79-4.56-7.5-9.17-11.25-13.77a40.09,40.09,0,0,0-5.24-8.18c-.4-2.38-2.07-4.12-3.14-6.16-5.31-10.13-10.47-20.32-11.79-31.9-.31-2.75-1.54-4.27-4.07-5.57-6.25-3.23-8-8.91-5.37-15.49,4-10,11.17-16.21,21.79-18.36,5.89-1.19,10.43.94,13.24,6.24a56.31,56.31,0,0,1,5.08,15A26.33,26.33,0,0,0,607,566.08a116.27,116.27,0,0,0,18.38,9.83c3.43,1.4,6,3.36,7.51,7a94.8,94.8,0,0,1-11,19.72,4,4,0,0,0-.92,2.22A14.41,14.41,0,0,1,614.21,613.83Z"/><path class="cls-29" d="M998.87,637.37v10.27a66.76,66.76,0,0,0-8.86,7.68,42.74,42.74,0,0,0-11.73,25.27c-.45,3.65.47,7.27,1.5,10.74s3.1,4.54,6.78,4.7c3.17.14,6.16-.75,9.22-1.7.92,3.79-.55,7.09-.86,10.61-3.24,2.06-6.75,3.55-9.79,5.91-8,6.2-13.12,14-14.21,24.18-.14,1.31-.62,2.59-.73,3.91-.4,4.71,1.46,7,6.07,8.2,3.26.86,6.56.76,10.32.64a19.82,19.82,0,0,1-1.85,6.81c-2.49,1.08-5.11,2.08-7.61,3.33a36.49,36.49,0,0,0-16.76,17.14,12.29,12.29,0,0,0-1.26,6.28c.34,5.5,3.49,9,8.94,9.57a46.48,46.48,0,0,0,4.81,0c0,2.17-.91,3.7-1.53,5.3s-1.36,3.36-2.13,5.25c-7.88,1.78-14.62,6-21.18,10.5-3.6,2.47-6.8,5.44-8.69,9.46-2.74,5.85-1.85,9.81,3.37,12.73,2.74,1.53,5.52,3,8.84,4.81l-7.78,13.77a46.29,46.29,0,0,0-17.33,4.5A39.27,39.27,0,0,0,910,872.15c-3,4.94-4.06,5.09-8.92,1.33-.56-2.58,1.25-4.23,2.63-6a348.9,348.9,0,0,0,23.18-34.84,353.1,353.1,0,0,0,35.23-83.08,383.77,383.77,0,0,0,9.49-43.63c1.67-10.63,2.7-21.37,3.51-32.14a410.43,410.43,0,0,0,.64-43.41,323.07,323.07,0,0,0-4.45-43,346,346,0,0,0-13.71-54.86,5.58,5.58,0,0,1-.31-4c4,1.3,5.84,5.9,10.37,6.55,4.89-2.24,8.37-6.23,11.92-10.65a22.48,22.48,0,0,1,2.49,7.63,13,13,0,0,1-2.54,3.87c-6.46,7.42-9.57,16.27-10.29,25.89-.61,8.26,1.61,15.8,7.6,21.89,3.21,3.26,5,3.44,8.61.64,2.36-1.82,4.53-3.88,7-6,1.85,3.79,1.4,8,2.63,11.9-2.94,3.47-6.79,5.89-9.48,9.55-5.46,7.45-9,15.45-8.68,24.86a33.9,33.9,0,0,0,3.17,13c2.17,4.8,5.07,5.82,10.11,3.78,1.53-.62,3-1.51,4.49-2.14C996.1,638.56,997.14,637.31,998.87,637.37Z"/><path class="cls-29" d="M319.24,647.85V636.4c2.43,1.16,4.64,2.41,7,3.29,5.82,2.19,7.81,1.36,10.88-4.13,1-1.82,1.75-3.89,4.14-5.23,0,8.26-.16,16.23,0,24.2a425.76,425.76,0,0,0,3.52,46.1A352.55,352.55,0,0,0,363.95,777c10.91,29.37,24.93,57.14,43.16,82.7,2.12,3,4.13,6,6.17,9.06,1,1.5,2.41,3,1.33,5s-3.16,1.38-4.93,1.41a3.41,3.41,0,0,1-.95-.27,2.59,2.59,0,0,1-1.27-2c-.54-5.58-4.48-8.74-8.43-11.79-6.59-5.07-14.25-7.63-22.35-9-.32-.06-.63-.18-1.08-.3-3.94-4.12-6.57-9.23-9.54-14.29A66.22,66.22,0,0,0,376.27,831c4.36-3.37,4.77-5.49,1.88-10.2a41,41,0,0,0-17.82-15.5,40.52,40.52,0,0,0-10.85-3.67c-2.29-3.35-3-7.28-4.85-11,2.21-.62,4-1,5.65-1.6,5.78-2,7.51-5.27,6.15-11.1-2.15-9.2-7.89-15.52-15.84-20.11a31.93,31.93,0,0,0-7.33-3.3l-2.43-9.18c2.55-.94,4.92-.44,7.17-1.12,5.24-1.59,7.32-3.72,7.06-9.21-.51-10.66-5.51-19-14.15-25.06-2.42-1.71-5.09-3-7.79-4.62,0-4.26-1.88-8.37-.95-12.87l4.85,1c5,1,8.45-.91,10-5.8,2.19-7,.88-13.79-1.87-20.37a39.36,39.36,0,0,0-12.87-16.8C321.2,649.72,320.27,648.76,319.24,647.85Z"/><path class="cls-29" d="M360.93,521.92c.32-1.79.66-3.58,1-5.37,1.76-10.43-1.67-19.55-7.11-28.16-.53-.83-1.19-1.58-2-2.61l5.67-12.4c3.82,2.64,4.42,8.73,10.24,9.49,3.12-.63,5.53-2.61,7.66-5.39,7.14-9.32,7.6-19.44,4.18-30.17a11.58,11.58,0,0,0-.73-2.37c-3.15-5.35-1.34-9.72,2.65-13.74,1.4,1.33,1.3,3.26,1.94,4.87a38,38,0,0,0,1.63,4.15c2.17,4,5.26,4.87,9.17,2.55,6.44-3.83,10.93-9.37,12.51-16.68,1.92-8.9,1.74-17.8-2.41-26.56,1.95-2.39,3.44-5.33,6.49-7.45.35,3.11.22,5.92,1.15,8.62,2.22,6.49,7.2,8.33,12.76,4.35,5.76-4.11,9.71-9.41,10.43-16.76.29-3,1.1-5.91.68-8.91a66.24,66.24,0,0,0-2.42-11.65l5.6-5.44c0,2.7,0,5.11,0,7.52a23,23,0,0,0,.2,4c1.28,6.72,5.72,8.83,11.68,5.54,6.71-3.7,10.44-9.65,11.95-17,1-4.88.54-9.87.15-14.81-.12-1.54-1.1-2.72-1.83-4.19,3-3,6.47-5.36,10.48-8,.38,2.76-1.1,4.13-1.49,5.8-.19.81-.32,1.63-.49,2.44-2.35,11.57.13,13.9,8.27,17.83-2.66,2.31-5.19,4.59-7.8,6.76a371.07,371.07,0,0,0-33,30.45,349.68,349.68,0,0,0-54.91,75.59,372.28,372.28,0,0,0-21.32,48.69C361,523.14,360.5,523,360.93,521.92Z"/><path class="cls-29" d="M660.06,282.91a6.89,6.89,0,0,1,5.42,2.2c6.29,6.16,12.57,12.34,18.75,18.61,2.5,2.54,2.61,4.26.37,7-2,2.43-4.35,4.57-6.56,6.82q-6.12,6.22-12.26,12.41c-4.57,4.62-7.53,4.64-12.2-.09-3.38-3.42-6.57-7-9.95-10.45-2-2-4.17-3.79-6.22-5.72-4.64-4.36-4.71-7.29-.15-11.64s9.41-7.89,13.59-12.42c1.67-1.81,2.83-4.07,5.11-5.36C657.31,283.51,658.54,282.76,660.06,282.91Z"/><path class="cls-29" d="M360,528.06c-3.38,11.58-6.89,23.12-9.44,34.93-2.27,10.51-4.37,21-5.66,31.73-.63,5.26-1.22,10.53-2,15.76a11.88,11.88,0,0,1-3,6.81c-3-10.73-7.89-20-16.62-26.72.73-4.17.83-8.3,2.1-12.51,1.49,1.14,2.94,2.2,4.34,3.33,6.48,5.26,10.42,4.17,14.13-3.12,6.18-12.17,5.59-24.3-1.1-36.11-2-3.6-4.4-7-6.69-10.67l2.32-7.35c1,1.41,1.88,2.55,2.61,3.78,4.23,7.15,12.72,6.67,16.94.73l1.15-1.62C360,526.83,360.47,527,360,528.06Z"/><path class="cls-34" d="M681,1035.43c-2.25.85-4.23.23-6.15.48-2.51-2.82-3.1-6.37-4.56-9.48-2.19-4.66-5.73-6.6-11-6.39-1,5.11.05,10.25-.67,15.53a18.21,18.21,0,0,1-6.1.16c-1.21-5.07,0-10.24-.76-15.23-6-.7-9.33,1.11-11.57,6.21-1.2,2.73-2.36,5.48-3.56,8.2-.13.28-.44.49-.77.84a12.74,12.74,0,0,1-6-.15c1.48-3.8,2.72-7.58,4.39-11.15,2-4.26,5.08-7.38,10.44-7.82-4.23-6-9.78-10.53-14.57-16.32h7.51c4.72,4.68,8.33,10.71,13.8,15.92,1.09-5.5.06-10.6.69-15.82a10.84,10.84,0,0,1,5.75-.1l1.15,15.36c3.42-1.86,4.78-5.2,7.06-7.64s4.14-5.17,6.24-7.85h7.77L665.86,1016C676.78,1018.24,677.38,1027.86,681,1035.43Z"/><path class="cls-34" d="M534.72,1008.77l4.61,29.43c1.09,1.26,2.8,0,4.21,1.84.13,4.22,1.71,9,1.48,13.64a4.86,4.86,0,0,1-4.65,1.14c-2-3.16-.91-7.18-3-10.76l-25,3.8c-1.24,3.87.63,7.21.46,10.78-1.46.83-2.86,1.6-5,1-1.73-4.64-1.49-9.85-3-14.94,5.44-1.39,5.26-6.19,6-10.16,1-5.36.5-10.79-.57-16.16a56.72,56.72,0,0,1-.54-6.15C518.18,1011,526.19,1009.19,534.72,1008.77Z"/><path class="cls-35" d="M534,984c.61,6.73,2.11,12.52,2.08,18.37-1.93,1.45-4.12.17-6.28,2.09-2.58-17.12-3.92-33.55-6.74-50a16,16,0,0,1,5.13-1.32c1.87,1.34,1.47,3.55,2.18,5.67a16.94,16.94,0,0,1,12.1-8.13c6-1,11,.77,14.59,5.32,5.08,6.42,5.68,13.82,3.12,21.54-2.82,8.53-15.68,13.67-24.08,8Z"/><path class="cls-34" d="M558.14,1036.14l1.75,18.26c-1.85,1.67-4,1.56-6.5,1.44-2.16-16.31-2.88-32.81-5.26-49.28,1.46-1.2,3.48-.55,5-1.4,2,1.36,1.42,3.64,2.2,5.48,1.63-1.71,2.92-3.63,5-4.88,10.1-6.16,21.67-1.63,24.79,9.13,1.77,6.11,1.75,12.18-1.59,17.81C578.51,1041.11,565.32,1042.95,558.14,1036.14Z"/><path class="cls-34" d="M456,952.38l7.36-1.66c-4,9.37-8.78,17.54-12.85,26,.6,1.54,1.68.36,2.53.46,5.14.59,9.54,2.49,12.71,6.81,3.43,4.66,6.95,9.25,10.82,14.38-2.59.72-4.53,1.85-7.09,1.57-2.9-2.87-5-6.43-7.42-9.81-2.54-3.62-5.49-6.5-10-7.63-3.17-.79-5.78.82-9.31.85l5.54,21.94c-2.07,1.23-4,2.09-6.6,1.41l-12-46.54c.81-1.38,1.9-1.47,2.8-1.79a19.87,19.87,0,0,1,3.33-.54c2.45,6.85,3.66,14,5.71,20.93,2.79-.16,3.14-2.45,3.94-4.12,3.21-6.72,6.3-13.5,9.43-20.25C455.2,953.81,455.54,953.25,456,952.38Z"/><path class="cls-36" d="M821.07,1032.33c1.36.93,2.51,1.6,3.53,2.43,5.37,4.36,4.19,11.62-2.24,14.3-3,1.27-6.18,1.08-9.32,1a56.69,56.69,0,0,1-17.35-3.39c2.17-11.61,3.87-23.12,6.54-34.66,5.9,1.06,11.54,1.08,16.93,2.85a33.28,33.28,0,0,1,6.32,2.85,7.45,7.45,0,0,1-1.2,13.37C823.35,1031.43,822.43,1031.81,821.07,1032.33Z"/><path class="cls-34" d="M782.79,974.62c-.06-9.65,5.39-19.41,18.21-19.35,12.63.06,19.24,8.05,19.15,17.78-.1,10.58-5.63,19.55-18.51,19.6C790,992.68,782.31,985.12,782.79,974.62Z"/><path class="cls-36" d="M499.19,1036.38c.48,10.87-8.15,18-19.21,18.46-10.24.44-17.85-7.81-18.09-19-.23-10.61,8-18.48,19.55-18.73C491.11,1016.94,499.47,1024.91,499.19,1036.38Z"/><path class="cls-36" d="M855,1059.22c-9.95.93-19.64-7.12-19.3-17.42s6.63-19.89,18.54-19.67c11.37.21,19.24,8.15,19.07,18C873.13,1049,866.87,1060.12,855,1059.22Z"/><path class="cls-36" d="M578.67,966.54c1.27,8.13,5,11.29,12.57,11.51,3.91.11,7.48-1.1,11-2.15a3.58,3.58,0,0,1,1.75,3.59c-.28.33-.52.86-.92,1a29.66,29.66,0,0,1-17.52,2.26,15.4,15.4,0,0,1-11.64-8.45c-4.19-8-2.85-23.7,10.07-27.54,12.48-3.71,22.43,4.56,20.68,17.87Z"/><path class="cls-36" d="M856.68,997.84c.34,2,.63,3.29-.71,4.87-7.59.4-15.23-.38-21.46-5.87-5.22-4.61-6.09-10.7-4.52-17.26,3.66-15.32,18.57-18,27.74-11.76,5.29,3.6,6.53,8.9,6.1,14.8a32.29,32.29,0,0,1-1.36,5.42c-4.54-1-8.86-2-13.18-3s-8.34-2-12.5-3c-1.85,6.18.15,10.92,5.6,13.67a23.7,23.7,0,0,0,7.11,2A48.09,48.09,0,0,0,856.68,997.84Z"/><path class="cls-36" d="M513.57,990.7l-5.48,1.25c-1.54-.87-.66-2.87-2.45-3.47-3.28,4.78-7.94,7-13.82,6.74-4.25-.15-7.38-2-9-5.85a10.21,10.21,0,0,1,1.51-11.19c2.65-3.19,6.26-4.85,10-6.18,2.48-.87,5-1.58,7.5-2.35-1.18-6.37-4.42-8.3-10.56-6.85-3.14.75-5.79,2.36-8.58,3.84a5.64,5.64,0,0,1-1.8-3.61c4.15-4.24,9.68-5.49,15.26-5.81,6.73-.39,11.47,4.43,12.91,12C510.43,976.33,511.52,983.52,513.57,990.7Z"/><path class="cls-36" d="M618.49,1001a27.35,27.35,0,0,1,7.2,0c-4.83,13.12-8.66,26.31-14.29,38.83-2.94,6.53-7.27,11.87-14.79,14.07-.87-1.6-1.91-3.07-1.58-5.28a25.2,25.2,0,0,0,9.2-7.9c1.89-2.8,2.21-5.19.61-8.29-4.4-8.55-8.52-17.26-12.73-25.91-.65-1.33-1.2-2.71-1.92-4.36h7.5l12.21,27Z"/><path class="cls-36" d="M718.59,1020.94c-9.41.28-18.11-1.67-26.86-.74.34,8,4.3,12.17,12,12.69a32.48,32.48,0,0,0,10.28-1c1.46,1.26,1.08,2.74.94,4.27a4.16,4.16,0,0,1-1.21.69c-4.89.86-9.7,1.48-14.76.46-9.47-1.92-15.9-9.76-13.77-21.68,1-5.6,3.59-10.5,9-13,6.19-2.92,12.74-3.18,18.44.91S719.31,1013.71,718.59,1020.94Z"/><path class="cls-36" d="M647,945.06v34.43c-1.71,1.32-3.67.21-5.79.73-.89-10.19-1.28-19.91-1.17-29.94-4.27-.74-8.34-.34-12.56-.2-1,1.8-.4,3.63-.47,5.39-.21,5.13.56,10.29-.72,15.4-1.76,7-4.48,9.53-11.92,10.53a12.17,12.17,0,0,1-1.16-4.6c8.55-2.73,7.59-10.3,7.36-16.82-.17-4.78-.09-9.57-.56-14.93Z"/><path class="cls-36" d="M777.32,952.64c-5.52,5.27-11.55,9-17.27,14,9.88,3.58,11.07,12.7,13.82,20.86-3.52.54-3.52.54-7.25-1-.84-2.48-1.67-5.16-2.66-7.78-2.3-6.09-6.21-8.66-12.64-8.28l-1.71,14.4c-2.09.67-4.13.16-6.82,0l4-35.25c2.53-.78,4.12.44,6,.59,1.28,5-1.33,9.81-.6,14.59,1.52.84,2.36-.06,3.22-.81,3.38-2.94,7-5.69,10.06-8.92C768.86,951.45,772.59,951.59,777.32,952.64Z"/><path class="cls-36" d="M662.31,944.1l6.32.93c1.31,3.72-.39,7.79.86,11.87,4.09-1.49,7.95,0,11.86.13a12.46,12.46,0,0,1,6.86,2.66c7,5,6,14.86-1.91,18.57a30,30,0,0,1-15.5,2.53c-2.75-.25-5.57-.39-8.49-.91Z"/><path class="cls-36" d="M451.43,1025.1a6.64,6.64,0,0,1,.26,4.15c-.82.94-1.89.65-2.83.62a15.75,15.75,0,0,0-11.46,4c-4.83,4.23-5.21,10.52-2.26,16.38,2.81,5.59,8.71,8,14.79,6.37a27.82,27.82,0,0,0,8-3.73c1.21,1.39,2.13,2.51,2.11,4.07-8.38,6.72-19.38,7.58-26.23,2.41s-8.57-13.68-6.13-21.6C430.2,1029.52,441.07,1023.24,451.43,1025.1Z"/><path class="cls-36" d="M752.59,1035.1c1.53,1.27,1.43,2.74,1.25,4.22-8.18,3.3-17.75,1.55-23.47-4.21-5.49-5.52-5.69-12.31-3.65-19s7.28-11.1,14.48-12c5.25-.66,10.62-.71,15.69,2.4a9.52,9.52,0,0,1-1.6,4.41c-7.07-2.34-13.92-4-19.7,2.64-3.5,4-3.81,12.15-1.31,15.87C738.83,1036.18,745.46,1036.9,752.59,1035.1Z"/><path class="cls-36" d="M734,948.77c.18,1.61-.65,2.84-1.56,4.16-1.89-.5-3.77-1.09-5.69-1.49-5.3-1.11-10.14.07-13.47,4.33a13.78,13.78,0,0,0-1.6,15.43c2.41,4.84,6.61,6.78,11.82,6.87a16.41,16.41,0,0,0,6.87-1,5.1,5.1,0,0,1,1.6,4c-1.58,3-14,2.68-19.93-.47-8.72-4.64-11.42-15.65-6.41-25.14S725.31,943.34,734,948.77Z"/><path class="cls-36" d="M770.78,1043.86l4.06-30.4-11.57-1.8a5.76,5.76,0,0,1,1.06-4.82l28.73,3.81a2.78,2.78,0,0,1,.89,2.52,3.08,3.08,0,0,1-1.11,2.52l-11-1.34c-1.8,9.66-2.62,19.47-4.23,29.47C775.56,1044.6,773.51,1043.9,770.78,1043.86Z"/><path class="cls-37" d="M360,528.06c-.15-.51-.38-.94-1-1,1-1.58.4-3.72,1.86-5.12.16.5.37.94,1,1A9.54,9.54,0,0,1,360,528.06Z"/><path class="cls-38" d="M366.12,537.09c-.29-.63.08-1.57-.89-1.88l1.06-3C366.94,534,367.55,535.67,366.12,537.09Z"/><path class="cls-6" d="M916.06,814.36c0,12.72-4,22.61-9.89,31.85a71.89,71.89,0,0,1-5.48,7.71c-4.4,5.22-7.18,5.27-11.94.55A44.76,44.76,0,0,1,878,837.32c-5.93-16.85-3-32.65,5.92-47.64a89.75,89.75,0,0,1,7.44-10.6c4-4.88,9.09-3.78,12.2.3A59.36,59.36,0,0,1,915,805,46.4,46.4,0,0,1,916.06,814.36Z"/><path class="cls-6" d="M422.34,857.93c-3.75-1-6.14-3.17-8.26-5.82C407,843.18,403.24,833,401.8,821.72c-1.73-13.53,1.05-26,7.68-37.68a42.82,42.82,0,0,1,3.68-5.31c3.65-4.64,7.07-4.91,11.29-.83a55.12,55.12,0,0,1,12.21,18.6,67.43,67.43,0,0,1,5.09,20.62c.65,7.74-1.68,15-4.51,22.17a58.85,58.85,0,0,1-9.1,14.77A10.19,10.19,0,0,1,422.34,857.93Z"/><path class="cls-6" d="M941.07,764.86c.91,9.57-2.5,18.29-5.5,27-1.59,4.63-4.5,5.63-9,3.32-11.08-5.7-18.13-14.85-21.49-26.7-4.07-14.34-2-28.2,4.34-41.49,2.83-5.95,6.18-6.57,11.41-2.59,10,7.59,16.91,17.1,19.6,29.55C941.22,757.61,940.93,761.24,941.07,764.86Z"/><path class="cls-6" d="M414,751.6c-.37,12.88-4.42,23.53-12.56,32.47-3.23,3.56-6.49,7.17-10.66,9.73-3.63,2.23-6.62,1.73-8.26-2-4-9.11-7.5-18.46-7.21-28.64.46-16.16,7.81-28.9,20.13-38.93,4.87-4,9.77-2.69,12.59,3.15a54,54,0,0,1,4.91,16.09C413.31,746.45,414.3,749.35,414,751.6Z"/><path class="cls-6" d="M922.26,628.89c-.49-2.68.41-5.61.87-8.53.73-4.6,3.56-6.36,8.14-5.45,17.84,3.56,34.92,19.21,34.67,41a46.08,46.08,0,0,1-1.13,7.86c-1,5.64-4.29,7.41-9.86,5.58a62.28,62.28,0,0,1-17.89-9.57A34.92,34.92,0,0,1,923.6,640,39.21,39.21,0,0,1,922.26,628.89Z"/><path class="cls-6" d="M961.81,598.84c-.39,3-.44,6.51-2,9.72s-4.22,4.9-7.69,3.85c-15.79-4.8-28.88-12.88-33.39-30.11a36.31,36.31,0,0,1,.17-18.25c1.53-6,4.4-7.69,10.26-5.82,6.54,2.09,12.27,5.75,17.69,10C956.79,575.86,961.07,586.21,961.81,598.84Z"/><path class="cls-6" d="M959.11,708.17c0,3.49.09,6.64-1.38,9.59A7,7,0,0,1,951,722c-3.6,0-6.85-1.24-10-2.68-12.62-5.78-21.14-15.2-24.59-28.8a38,38,0,0,1-.25-16.7c.91-4.69,2.81-6,7.63-5.94a26.79,26.79,0,0,1,13.93,4.7c10.42,6.66,17.75,15.71,20.69,28A44.71,44.71,0,0,1,959.11,708.17Z"/><path class="cls-6" d="M400,569.66a40.78,40.78,0,0,1-7.62,22.69c-6.34,9.06-14.18,16.16-25.21,19-4.79,1.24-7,.23-9.22-4.24-2.93-5.91-3.1-12-1.39-18.29,3.27-12.08,10.73-20.73,21.48-26.75a47.76,47.76,0,0,1,10.4-4.66c5.89-1.64,9.36.4,10.54,6.35C399.41,566,400.37,568.24,400,569.66Z"/><path class="cls-6" d="M401.11,680.55c.47,17.41-13.35,35.24-28.67,39.74-10,2.94-14-2.39-14.52-10.58-1.23-18.06,10.36-32.69,26.34-39.6a53.45,53.45,0,0,1,8.45-2.85c3.33-.82,5.29.37,6.79,3.55C400.55,673,401.09,676.29,401.11,680.55Z"/><path class="cls-6" d="M394,626.82c1.39,19.37-13.49,37.55-32.27,41.36-4.32.88-7.08-.47-8.68-4.46A25,25,0,0,1,352,647.17c4.09-14.38,12.51-25,26.51-30.92a22.3,22.3,0,0,1,9.8-1.33c4.35.19,5.6,1.48,5.7,5.76C394,622.67,394,624.67,394,626.82Z"/><path class="cls-39" d="M399.05,493c-6.14,1.08-8.38-4.94-7.59-11.28a23.21,23.21,0,0,1,5.53-12c5.59-6.63,12.35-11.43,21-13.17a17.61,17.61,0,0,1,9.76.6c2.89,1.07,4.16,2.88,4.09,6.06-.16,7.85-3.48,14.48-8.83,19.92C416.63,489.57,408.52,492.61,399.05,493Z"/><path class="cls-39" d="M469.43,407c-.83,0-1.67.06-2.49,0-7.6-.68-9.6-4-7.27-11,4.33-13,20.16-18.43,30.46-15.08,4.33,1.41,5.49,3.43,4.36,7.84C491.66,399.91,479.84,407.25,469.43,407Z"/><path class="cls-39" d="M832.56,381c8,.23,15.44,1.7,21.17,8a22.19,22.19,0,0,1,5,10.12,6.26,6.26,0,0,1-4.48,7.77,19.73,19.73,0,0,1-11.22.31c-9.39-2.38-15.88-7.81-19.26-16.92-2.32-6.27-.42-9.09,6.31-9.26C830.89,381,831.73,381,832.56,381Z"/><path class="cls-39" d="M800.31,336.93c6.9.3,13.54,2.19,18.92,7.65A20.68,20.68,0,0,1,824.74,356c.6,3.43-1.32,5.94-4.86,7-7.1,2.14-13.46-.16-19.48-3.53-5.61-3.14-9-8.17-10.86-14.31-1.28-4.35-.29-6,3.92-7.47C795.6,337,797.73,337.18,800.31,336.93Z"/><path class="cls-39" d="M518.08,336.89c1.33,0,2.67,0,4,0,5.82.16,8.26,4,6.16,9.39-4.12,10.63-12.17,15.7-23.21,16.6a27.87,27.87,0,0,1-4.49,0c-5.91-.48-8.73-5-6.66-10.52C497.69,342.23,505.95,336.94,518.08,336.89Z"/><path class="cls-40" d="M614.21,613.83c2.31-2.92,4-6.32,6.69-8.94,1.2.35,2.06-.56,3.09-.83l-4.09,9.81Z"/><path class="cls-41" d="M663.14,769.89,662,762l4.23-.11a17.36,17.36,0,0,1,2.85,8Z"/><path class="cls-42" d="M528.72,1014.09c1.25,8.8,3,16.88,3.53,25.35-5.28,1.82-10.65,1.92-16.75,2.89a47.5,47.5,0,0,0,.67-25.79C520.16,1015.06,524.3,1015.07,528.72,1014.09Z"/><path class="cls-6" d="M532,968.05c-.14-7.73,5-12.75,12.43-12.15,3.71.3,6.2,2.46,8,5.36a16.31,16.31,0,0,1,1.11,15.28c-1.71,4.19-6.82,6.85-11.46,6.35s-7.94-3.57-9.16-8.46A27.68,27.68,0,0,1,532,968.05Z"/><path class="cls-6" d="M556.91,1021.8c-.18-7.5,2.21-11,7.74-12.93s10.73,1.31,12.85,5.66a17.2,17.2,0,0,1,.35,14.88,10.91,10.91,0,0,1-20.73-3.35C556.91,1024.42,556.95,1022.75,556.91,1021.8Z"/><path class="cls-43" d="M802.89,1043.6c.8-3.89.91-7.67,2.41-11.53,4.39.77,8.79,1.16,12.66,3.49,1.9,1.14,3.41,2.78,2.94,5.27a5.48,5.48,0,0,1-4.55,4.58,13.28,13.28,0,0,1-4.88.42A25.09,25.09,0,0,1,802.89,1043.6Z"/><path class="cls-43" d="M821.61,1026.66c-4.32,3.14-6.91,3.26-15.6.65.65-3.27.63-6.69,2.09-10,3.47.5,6.73.79,9.78,2C821.68,1020.93,822.28,1022.18,821.61,1026.66Z"/><path class="cls-6" d="M813,973.18c-.08,5-1.73,9.33-5.88,12.47-6.41,4.84-15.62,1-17.06-7.31a18.88,18.88,0,0,1,1.13-10.73c2.25-5.29,7.66-8.46,12.71-7.42,5.35,1.1,8.9,5.58,9.1,11.5C813,972.18,813,972.68,813,973.18Z"/><path class="cls-6" d="M492.1,1037.05a16.29,16.29,0,0,1-.51,4.91c-1.6,4.47-4.73,7.41-9.36,7.81a11,11,0,0,1-10.55-5.25c-2.81-4.16-3.25-8.67-2.54-13.31.74-4.82,4.33-8.11,9.48-8.92,4.54-.72,8,1.25,10.57,5A15.1,15.1,0,0,1,492.1,1037.05Z"/><path class="cls-6" d="M866.11,1039.84c-.09,4.9-1.77,9.11-5.64,12.21-7.39,5.92-15.81.66-17.45-5.63-1.35-5.18-.08-9.86,2.59-14.14s8.52-6.37,13-4.57C863.65,1029.71,866.21,1033.46,866.11,1039.84Z"/><path class="cls-43" d="M578.19,961.89c2-8.72,5.49-11.73,12.41-11,4.79.51,7.33,3.81,7.18,10C591.41,960.47,585.12,962.07,578.19,961.89Z"/><path class="cls-43" d="M856.89,982l-18.58-4.37c.61-5.17,6-9.29,10.76-8.44C855.39,970.33,858.67,975.39,856.89,982Z"/><path class="cls-44" d="M502.7,974.53c1.67,2.27,1.74,5,1.58,7.54-.32,5-5.78,8.79-10.72,8a5.26,5.26,0,0,1-4.6-4.55c-.53-3,.25-5.65,3-7.37A25.54,25.54,0,0,1,502.7,974.53Z"/><path class="cls-43" d="M711.89,1016c-6.8,0-13.19.13-19.5-1.23,1.12-6.61,5.35-10.23,11.26-9.67C708.85,1005.57,711.84,1009.32,711.89,1016Z"/><path class="cls-42" d="M669.15,975.89V961.21c4-.32,7.75-.54,11.41.84,3.28,1.24,5.44,3.79,5.39,6.47-.07,3.44-2.09,5.35-5.13,6.59C677.09,976.6,673.33,976,669.15,975.89Z"/></g></g></svg>