<?xml version="1.0" encoding="utf-8"?>
<!-- Generator: Adobe Illustrator 21.1.0, SVG Export Plug-In . SVG Version: 6.00 Build 0)  -->
<svg version="1.1" id="Слой_1" xmlns="http://www.w3.org/2000/svg" xmlns:xlink="http://www.w3.org/1999/xlink" x="0px" y="0px"
	 viewBox="0 0 95.1 103.9" style="enable-background:new 0 0 95.1 103.9;" xml:space="preserve">
<style type="text/css">
	.st0{fill:#667F95;}
	.st1{fill:#D7B768;}
	.st2{fill:#8C753E;}
	.st3{fill:#D8B661;}
	.st4{fill:#D9BF81;}
	.st5{fill:#BB9336;}
	.st6{fill:#B69036;}
	.st7{fill:#8F7943;}
	.st8{fill:#D7BE80;}
	.st9{fill:#DAB863;}
	.st10{fill:#DAC183;}
	.st11{fill:#B79032;}
	.st12{fill:#D9B661;}
	.st13{fill:#D4B465;}
	.st14{fill:#708596;}
	.st15{fill:#8396A5;}
	.st16{fill:#798C98;}
	.st17{fill:#B79031;}
	.st18{fill:#B58F34;}
	.st19{fill:#B38E33;}
	.st20{fill:#B79134;}
	.st21{fill:#8A7540;}
	.st22{fill:#D6BD80;}
	.st23{fill:#D6B664;}
	.st24{fill:#D6B562;}
	.st25{fill:#B58F33;}
	.st26{fill:#CEB164;}
	.st27{fill:#D2BB82;}
	.st28{fill:#8A7642;}
	.st29{fill:#B69032;}
	.st30{fill:#D9B55E;}
	.st31{fill:#D5B462;}
	.st32{fill:#A88838;}
	.st33{fill:#D3B25F;}
	.st34{fill:#AF8F3E;}
	.st35{fill:#A78A3F;}
	.st36{fill:#B3903B;}
	.st37{fill:#A68940;}
	.st38{fill:#677F95;}
	.st39{fill:#D4B464;}
	.st40{fill:#B48F34;}
</style>
<title>gallery</title>
<path class="st0" d="M21,35.1c2.7-1.4,3.6-4.5,6-6.2c2.7-0.4,3.1,2.2,4.6,3.4c1.5,1.2,2.2,3.1,3.6,4.3c-0.9-4-3.9-6.7-5.6-10.2
	c-0.5-1-1.1-2.1-0.5-3.3c0.1-1.3-0.4-2.7,1.3-3.7c1.3-0.8,2.1,0.9,3.6,1l6.3-7.5c3,1.1,2.5,4,3,6.2c1.1,4.7,1.5,9.6,3.5,14.1
	c-1-7.5-0.8-15.3-4.8-22.1l1.2-2c-0.8-2.8-5.3-3.7-3.6-7.7c3.7-1.6,4.8,2.1,7,3.4c2.6-1,3.2-4.8,6.6-4.7c1.3,0.4,1.1,1.6,1.5,2.5
	c-1.3,2.3-2.9,4.4-4.7,6.3c3.3,3.3,6.6,6.3,9.8,9.4c0.6,0.6,1.4,0.9,2.3,0.8c0.9,2.4-0.7,4-1.7,5.8c-2,3.2-3.6,6.5-5,10
	c-0.2,0.8,0.3,1.5,1,1.8c3.2-3.5,4.7-8.2,7.8-11.8c0.4-0.6,1.2-0.8,1.8-0.6l7.2,7.8c0.5,0.5,0.7,1.3,0.4,2c-1.8,2.8-5.1,3.3-7.8,4.7
	c-1.8,0.8-3.7,1.4-5.1,2.9c0.5,2.9,2.3,1.5,3.7,1.1c3.5-1.1,6.6-2.9,9.9-4.4c1.2-0.6,2.4-1.1,3.7-1.5c0.4,0,0.9,0.2,1.2,0.5
	c2.1,3,5,5.3,7.6,8c3.1-1.3,3.6-6.4,8.1-5.3c1.7,4.4-2.8,5.8-4.3,8.7c1.1,2.8,5.9,3.8,4.1,8.3c-3.8,0.8-4.6-3.3-7.4-4.3l-7.9,9.3
	c-3.4,1.3-5.9-1.4-9-1.8c-1.5-0.6-3-1.1-4.5-1.6c-1.5,1.8-1.6,1.9,0.6,2.8c4.4,1.8,8.7,3.4,13.1,4.9c0.9,0.4,1.6,1.1,1.9,2.1
	l-0.3,2.3c-3.1,1.7-4.4-1-6.4-2.6c-2.3,2.1-4.6,4.1-5.9,7c-4.2-0.4-5.5-5-9-6.4c-1-0.7-2.4-0.7-3.4,0.1c3.1,3.7,6.5,7.2,10.2,10.4
	c1,1,2,2.1,1.4,3.7c0.2,2-1,2.4-2.7,2.4s-2.4-1.4-3.5-2c-3.6,2.5-5,6.7-8.6,8.9c-3.1-4.2-2.2-9.4-3.3-14.1c-0.4-1.7-0.1-3.6-1.4-5
	c-2,4.5-0.5,9.1-0.9,13.7c0.1,1.4-0.3,2.9,0.7,4.2c1.5,1,3.6-0.3,5,1.3l-1.5,2.5c0.9,2.8,5.5,3.6,4.3,7.8c-3.8,2-4.9-2.2-7.3-3.4
	c-1.8,0.1-2.2,1.8-3.1,2.9s-2.3,1.3-3.6,2.1c-3-4.3,1.5-5.8,2.9-8.7c-2.9-3.5-6.1-6.7-9.7-9.5c-1.8-2.3-0.3-4.5,0.5-6.5
	c0.9-2.3,1.3-4.8,2.3-7.1c0.3-1.1,0.8-2.1-0.3-3.5c-2.1,1.8-2.5,4.4-3.7,6.6c-1,1.9-1,4.6-4,4.9C27,78,25,74.9,21.9,73
	c0.2-3.7,3.7-4,5.8-5.8c1.1-0.5,2-1.4,2.7-2.5c-2.5,0.3-4,1.6-5.7,2.5c-2.1,1-3.9,3.1-6.6,1.9l-6.9-6.2c1.4-3.1,4.6-1.9,6.9-2.8
	c1.7-0.6,3.6-0.3,5.3-1c0.6-0.3,1.2-0.5,1.7-2.2c-6.5,0.5-12.3,2.3-18.2,3.7c-1.7,0.5-2.4,2.2-3.8,3.1l-2.4,0.1
	c-2-4.3,2.9-5.6,3.5-9c-0.2-1.5-2-2.2-2.9-3.5c-1.2-1.6-1.8-3.1,0.3-4.5c1.4-1.1,2.6-0.2,3.8,0.4c1.4,1.2,2.8,1.8,4.6,0.7
	c3.8-0.5,7.2,1.3,10.8,1.9c1.1,0.4,2.3,0.7,3.4,1.1c1.1,0.4,2.3,0.4,3.3-0.1c-5.1-2.1-9.8-2.9-14.3-4.3c-0.7-0.4-1.2-0.8-1-1.7
	c2.7-0.9,3.4-3.8,5.7-5.2l-1.8-3c3.2-1.4,5,1.5,7.4,2.5c1.6,0.8,3.1,1.7,4.6,2.8c0.7,0.5,1.4,0.8,2.2,0.9c-2.7-3.2-6.7-3.9-9.2-6.7
	C20.7,36,20.7,35.5,21,35.1z"/>
<path class="st1" d="M41.9,11.1c2.8,1.1,4,3,4.2,6.2c0.4,5,1.6,10,2.6,15c0.3,0.9,0.3,1.9,0,2.9c-0.8,1-1.8,0.5-2.9,0.7
	c-2.8-2.9-1.8-6.9-2.8-10.2c-1.3-4.2-1-8.7-2.9-12.8C40.3,12,41,11.3,41.9,11.1z"/>
<path class="st2" d="M60,67.9c2.3,0,3.2,2.1,4.7,3.3s2.6,2.4,4,3.7c1.8,2.3,4.6,3.6,6.7,5.8c-0.8,2-2.6,3-3.6,4.4
	c-2,0-2.5-1.8-3.9-2.4c-0.7-0.9-0.7-2.2-1.8-2.8c-1.5-2.5-3.6-4.6-5-7.2C60.2,71.2,58.6,69.8,60,67.9z"/>
<path class="st3" d="M79,37.1c-0.3,0-0.6-0.1-0.9-0.1c-1.4,0.6-3.1,0.7-4.4,1.6c-4.8,1.3-9.4,4.2-14.7,2.3c4.2-3.4,9.6-4.2,14-7.1
	c2.7-1.5,4.5-4.9,8.3-3.9c1.5,1.5,0.2,3.5,0.9,4.9C81.7,36.1,80.4,37,79,37.1z"/>
<path class="st4" d="M53.9,34.9c1.8-5.8,5.7-10.5,8.1-16c0-2.1,1.4-3.1,3-4.1c1.8,0.2,2.2,1.9,3,3.1c0.9,2.6-2.1,3.9-2.1,6.1l-1,0.9
	c-3,2.2-4.8,5.5-7.4,8C56.4,33.9,55.8,35.6,53.9,34.9z"/>
<path class="st5" d="M31,32.9c-2.1-0.6-1.9-3.5-4-4.1c-1.7-3.7-5.4-6.1-7.1-10.1c1.4-1,2.7-1.9,4.4-1.9c2,1.7,2.6,4.6,4.7,6.2
	c0.3,0.9,1.2,1.6,1,2.7c0.9,2,2.5,3.8,2.6,6.2C32.3,32.7,32,33.3,31,32.9z"/>
<path class="st6" d="M4.9,48l-3.5-1c-0.6-2.1,0.8-3.3,1.9-4.6l8.8,2.6c0,0.5,0.4,0.9,0.9,0.9c2.6,1.5,6,1.3,8.2,3.8
	c0.1,0.5,0.1,1-0.2,1.3c-4,0.1-7.5-2.3-11.5-2.1C7.9,49.2,6.3,48.9,4.9,48z"/>
<path class="st7" d="M28,43c-2.8-0.9-5.1-2.7-7.6-4.2C19,38,17.7,37,16,36.8c-1.9-2.6-5.3-3.2-7.5-5.5c0.6-1.2,1.7-2.1,2.9-2.6
	c3.9,1,6.1,4.6,9.6,6.3c0,0.3,0,0.5,0,0.8c1.6,1.4,3.3,2.6,5.1,3.7C27.4,40.3,28.7,41.1,28,43z"/>
<path class="st8" d="M30,80.1c3.3-4.1,4-9.4,6.7-13.8c3.8,1.6,3.9,1.9,2.3,5.6c-2.2,4-4,8.3-6.9,12c-1.1,1.3-1.6,3.4-4,3
	C28,84.5,30.6,82.8,30,80.1z"/>
<path class="st9" d="M28.1,86.9c3.6-3.5,5.9-8,8.5-12.2c0.7-1.1,0.9-2.5,2.4-2.8c-0.6,4.8-3.5,9-4,13.8l-2.5,5.2
	C31.2,89.2,28,90.1,28.1,86.9z"/>
<path class="st10" d="M28.1,67.9c-1.6,2.2-4.9,2.4-6.2,5l-1.6,1c-1.7,1-3.1,2.5-5.2,2.9l-4.2,2.1c-1.3-1.5-0.5-3.2-0.8-4.7
	c2.3-1.5,4.3-2.9,6.8-3.4c2.2-1,4.6-1.8,6.7-2.9C25,67.2,26.5,66.5,28.1,67.9z"/>
<path class="st11" d="M70.1,58.9c3.3,0,6.1,2,9.2,2.8l5.8,1.7c-0.8,1.8-0.8,3.6-1.7,4.8c-1,0.7-1.5,0-2.1-0.1L79,66.9
	c-3.3-2.6-8.2-2.9-10.3-7.1C68.8,59,69.1,58.4,70.1,58.9z"/>
<path class="st12" d="M2.9,63.7c0.2-2,0.4-3.9,3.1-3.8c4.2-0.8,8.4-1.2,12.6-1.4c2-0.2,4-0.1,5.5,1.5c-2.9,1.5-6.2,1.4-9.3,1.9
	c-1.3,0.1-2.5,0.5-3.7,1C8.2,62.3,5.7,64.2,2.9,63.7z"/>
<path class="st13" d="M28.1,67.9c-2-0.3-3.5,0.6-5.1,1.5c-1.8,1.2-4,1.7-6.1,1.4l1.2-1.8c2.8-0.7,5.1-2.3,7.5-3.8
	c1.6-1,3.3-2.2,5.2-2.4c1.2,0.2,2.1,1.2,2.2,2.4C31.2,65.9,30.3,67.9,28.1,67.9z"/>
<path class="st14" d="M81.3,29.9L73,33.8v-1.9c2.3,0.2,3-1.7,4-3.1c0.8-0.9,2-1.3,3.1-0.9C81.1,28.1,81.1,29.1,81.3,29.9z"/>
<path class="st15" d="M68,18c-1.3-0.6-2.4-1.7-3-3.1c0.6-1,1.6-0.9,2.6-0.6C68.4,15.4,68.1,16.7,68,18z"/>
<path class="st16" d="M15,76.9c1.7-1.1,2.8-3.1,5.2-2.9l-1.5,2.5C17.6,77.1,16.2,77.2,15,76.9z"/>
<path class="st17" d="M49,70c1.9,0.9,1.2,3,1.5,4.4c1.2,5.8,1.7,11.7,2.5,17.6l0-0.1c-2.3-0.6-4.2,1.8-7,0.4v-5.5
	c1.1-4,0.7-8.2,1.4-12.3C47.8,73,47.8,71.3,49,70z"/>
<path class="st18" d="M24,60L5.9,59.9c5-2.3,10.4-2.6,15.6-3.9c1.2-0.4,2.5-0.7,3.8-0.9c1.5,1.8,1.5,1.8,1.5,4.2
	C26,60.2,25,59.9,24,60z"/>
<path class="st19" d="M60,67.9c0.5,3.5,3.3,5.5,4.9,8.4c0.7,1.1,1.1,2.4,1.1,3.7c-4.5-3.1-7.6-7.6-11.7-11.1
	C57.2,65.2,57.2,65.2,60,67.9z"/>
<path class="st20" d="M59,40.9l15-3c1-0.4,1.2,0.1,1,0.9c-4.4,2.4-8.9,4.4-13.6,6.1c-1.4-0.4-2.5-1.4-3.2-2.7
	C57.8,41.8,58.2,41.2,59,40.9z"/>
<path class="st21" d="M69,59.9c3.2,2.6,7.4,3.6,10,7c-5.7-1.6-11.3-3.7-16.7-6.2c-0.8-2.1,0.5-3.2,1.4-4.7l2.3,1
	C66.6,58.4,68.4,58.5,69,59.9z"/>
<path class="st22" d="M57,54c1.6-2.1,2.8-4.5,5-6.1c2,3.6-1.2,6-2,9c-1.5,2.4-3.6,4.5-6,6c-1.1-0.7-2-1.8-2.4-3
	c0-1.8,1.3-2.7,2.4-3.6C55,55.5,55.8,54.4,57,54z"/>
<path class="st22" d="M40,63.9c-4.9-2-8.3-8.2-7-12.9c1.9-0.4,2,1.5,3,2.3c1.5,4.5,5.8,5.5,9.2,7.7C44.9,64.4,41.8,62.9,40,63.9z"/>
<path class="st23" d="M53.9,34.9c2.6-2.7,5.1-5.4,7.7-8c0.9-0.9,1.7-2.1,3.3-1.9l-8.1,13.5c-1.4-0.1-2.8-0.8-3.6-2
	C52.8,35.9,53.2,35.2,53.9,34.9z"/>
<path class="st24" d="M40,63.9c1.3-1.6,3.8-0.9,5-2.7c2.1-1.9,4.3-2.8,7-1.2c1.3,0.4,2.2,1.6,2,3l-7.8,2.9L40,63.9z"/>
<path class="st25" d="M73,47c3.6,0.1,7-1.3,10.6-1.5c-0.2,3-1.1,4.2-4.3,4.2c-4.5,0-8.8,0.8-13.2,1C67.1,47.2,70.8,48.5,73,47z"/>
<path class="st26" d="M73,47c-1.8,2.2-4.8,2.1-6.9,3.8c-3.2,0.9-3.7,4.4-6,6.1c0.1-3.1,1.5-6,2-9c1.6-1.7,3.7-0.7,5.6-0.9
	C69.4,46.9,71.2,46.9,73,47z"/>
<path class="st27" d="M57,54c-0.7,0.9-0.7,2.4-2.1,2.9c-2.3-0.9-3.9,2.5-6.2,0.9c-0.5-1.1-0.4-2.3,0.3-3.3c1.8-2,3.2-4.3,4.3-6.8
	c0.7-0.9,1.1-2.2,2.7-1.8c1.1,1.7,1.5,3.4,0.4,5.3C55.9,52.2,55.5,53.4,57,54z"/>
<path class="st28" d="M21,49.9c-2.7-1.3-5.8-1.7-8-4c5.9,0.4,11.1,2.9,16.8,4.3c-1.7,3.2-2,3.3-5.8,1.8C23.1,51.1,21.5,51.4,21,49.9
	z"/>
<path class="st24" d="M56,45.9c-1.2,0.2-0.8,1.9-2,2c-3.2-0.8-5.2-3.7-8.2-4.9c-1-2.3,0.6-3.2,2.2-4c1.1,0.6,2.3,1.1,3.5,1.5
	C54.5,41.2,55.7,43.2,56,45.9z"/>
<path class="st29" d="M48,39.1c-0.5,1.3-2.3,2-2,3.7c-1.8,1.9-4.3,2.9-6.9,2.8c-1.9-0.6-2.2-2-2-3.7C40.2,39,44,38.6,48,39.1z"/>
<path class="st30" d="M49,70c0,5.8-0.6,11.5-2.9,16.9V70.7C47.1,69.6,48.1,70,49,70z"/>
<path class="st31" d="M37.1,41.9c1.6,0.4,0.3,2.7,2,3.1c-0.4,3.4-2.7,6-4,8.9c-1.8-0.3-0.3-2.7-2-3C32.7,47.4,34.2,44,37.1,41.9z"/>
<path class="st32" d="M28,43c-0.6-1.4-1.6-2.5-3-3.1c-1.7-0.9-3.1-2.3-4-4.1c4.4,1.8,8.4,4.3,11.9,7.5C30.8,45.6,29.3,45.2,28,43z"
	/>
<path class="st33" d="M32,31.9c0.1-2.3-2.3-3.8-2-6.2c3.3,3.8,5.5,8.2,8.2,12.4c-1.6,1-2.6,1.3-3.3-0.2C33.7,36.1,32.7,34,32,31.9z"
	/>
<path class="st34" d="M32,31.9c1.6,1.7,2.7,3.8,3,6.1c-2-1.1-2.7-3.3-4-5C31.5,32.9,32,32.5,32,31.9z"/>
<path class="st35" d="M69,59.9c-1.1-0.8-3.2-0.8-3-2.9c1.2,0.9,3.1,0.4,4.1,1.9C69.5,59,69.1,59.4,69,59.9z"/>
<path class="st36" d="M75,38.9c0-0.5-0.5-0.9-1-0.9c1-1.8,2.7-0.8,4.1-0.9C77.4,38.2,76.1,38.3,75,38.9z"/>
<path class="st37" d="M21,49.9c1,0.3,1.8,1,2.9,1c0.9,0,0.7,0.6,0,1c-1-0.2-2.3,0.5-3-0.9L21,49.9z"/>
<path class="st38" d="M35,53.9c-0.7-3.9,2-6.3,4-8.9c2.5-0.2,4.3-2.5,7-2.2c3.8,0,6,2.3,8,5.1c0,3.1-2,5-4,6.8
	c-0.9,1.2-2.6,1.3-3.8,0.4c-0.1-0.1-0.2-0.2-0.3-0.3c-1.1-2.1,1-3.3,1.3-5c-4.1,0.4-4.4,1.2-2.6,6c1.1,1.5,3,1.2,4.4,1.9
	c1.2-0.5,2.3-1.2,3.6-1.6c0.9-0.3,1.9-0.7,2.4,0.7c-1.3,0.7-2.3,1.7-3,3l-7,1.2C40.3,60.7,36.8,58.5,35,53.9z"/>
<path class="st39" d="M49,57.8c-2,1.6-3.6,0.8-5.1-0.8c-0.8-1.9-0.3-3,1.8-3c1.1,1.7,2.7,0.8,4.2,0.8C49.9,55.8,48.8,56.6,49,57.8z"
	/>
<path class="st40" d="M45.8,54c-1.2,0.5-1.9,1.7-1.8,3c-1.2-0.5-1.4-1.8-1.7-2.8c-1.1-3.6,0.7-6,4.5-6.2c0.8,0,1.6,0,2.4,0
	C49.8,51.1,46.8,51.9,45.8,54z"/>
</svg>
