<svg xmlns="http://www.w3.org/2000/svg" viewBox="0 0 103.21 103.8"><defs><style>.cls-1{fill:#b99131;}.cls-2{fill:#7d5b16;}.cls-3{fill:#687f95;}.cls-4{fill:#b8902e;}.cls-5{fill:#53585e;}.cls-6{fill:#b8902f;}.cls-7{fill:#687f96;}.cls-8{fill:#9ab1c7;}.cls-9{fill:#435666;}.cls-10{fill:#9bb3ca;}.cls-11{fill:#5c4c2d;}.cls-12{fill:#697f95;}.cls-13{fill:#bb9437;}.cls-14{fill:#aa9779;}.cls-15{fill:#bb963b;}.cls-16{fill:#445868;}.cls-17{fill:#856526;}.cls-18{fill:#425666;}.cls-19{fill:#f1ddb5;}.cls-20{fill:#8e7b56;}.cls-21{fill:#a38e6d;}.cls-22{fill:#625232;}.cls-23{fill:#c9ced6;}.cls-24{fill:#8f7c57;}.cls-25{fill:#dcd9d0;}.cls-26{fill:#9bb2c8;}.cls-27{fill:#b88f2e;}.cls-28{fill:#8d7b56;}.cls-29{fill:#efdab1;}.cls-30{fill:#a28e6f;}.cls-31{fill:#efdcb4;}.cls-32{fill:#635333;}.cls-33{fill:#a38f6f;}.cls-34{fill:#565b60;}.cls-35{fill:#6d6f6e;}</style></defs><title>join</title><g id="Слой_2" data-name="Слой 2"><g id="Слой_1-2" data-name="Слой 1"><path class="cls-1" d="M63.05,89l-4.57,5.14c.75,3,5.82,3.86,4.08,8.27-3.59.57-4.47-3-7.12-4.31-2.12,1.45-3.13,4.23-5.45,5.68H48c-.93-4,2.9-5.87,4.05-8.91-1.62-2.83-4.65-4.27-6.11-7,3.93-3,8.08-.17,12.12-.47C59.89,87.43,61.77,87.32,63.05,89Z"/><path class="cls-2" d="M.9,13.85A6.39,6.39,0,0,1,0,13.8v-3C4.21,8.63,8.73,8.31,13.32,8.69c3.12.26,6.23.72,8.52,3.54l-.91,1.57c-.92,2-2.8,2.6-4.72,2.92A11.34,11.34,0,0,0,11,19C8.1,16.39,3.86,16.37.9,13.85Z"/><path class="cls-3" d="M63.05,89l-5.13-.42c-.45-.48-1.05-.94-1.16-1.59-1.27-7.63-4.59-14.35-9.07-20.56a1.25,1.25,0,0,1,.8-1.11c4.26.28,6.92,4.11,11.35,4.59,8.52.94,15.08-2.8,21.42-7.43C83,61.26,84,59.15,86,58.19a2.76,2.76,0,0,1,2.9.58c5.45,1.43,8.62,5.09,9.92,10.42,1.35,5.56,2.56,11.16,4.36,16.61-1.38,2-3.49.48-5.17,1.06-6.55-.17-9.31-4.13-9.92-11-1.83,4.78.56,9.25-2.1,12.9A64.83,64.83,0,0,1,63.05,89Z"/><path class="cls-4" d="M10.93,18.8l.21-2.68c3.37-.34,6.78-.56,9.79-2.32.67,4.74,2.31,9.34,2.11,14.1a23.19,23.19,0,0,0,6.11,7l8.42-10c.79-1.94-1.71-3-.38-4.63s2.6,0,4.1.24L51,9c-.83-3-5.39-3.83-3.64-7.93C50.71.14,51.42,4,54,4.78,56.59,4.06,57.2.25,60.36,0,62,2.7,62,2.7,57.46,8c-.24.75.46,1.15.63,1.75-1.06,3.62-5.23,5.48-5.42,9.59-.74,1.1-2.44,1.24-2.73,2.77-.29,2,2.42,1.9,2.46,3.62A21.38,21.38,0,0,1,50,33.26c-1.3,2.66-.87,4.75,1.26,6.64a3.34,3.34,0,0,1-1.36,3.28C45.51,44,42.16,40.86,38.18,40A63.5,63.5,0,0,1,32,38c-3.7-2-6.83,1.72-10.4,1-5.17-4.37-11.1-8.2-11.41-16C10.16,21.54,9.7,20,10.93,18.8Z"/><path class="cls-5" d="M81.79,23.85c5,4,9.34,8.87,14.05,13.25L97,42c.18.85-.34,1.3-1,1.7a26.32,26.32,0,0,1-3.34,1.4c-4.33,1.25-8.67,2.51-13,3.74-2.39.48-4.69,1.52-7.41,1.16-2.49-2.5-1.08-5.42-.68-8.23,0-4.13.65-8.2.95-12.31,1.08-2.4,3.49-3.52,5.16-5.35C79,23.21,80.34,22.48,81.79,23.85Z"/><path class="cls-6" d="M96.18,42.8,97,42c1.54-.68,2.34-3,4.9-1.82,1.37,4-2.9,5.23-4.32,8.15.63,2.84,6.19,3.69,3.87,8.16-3.56.42-4.4-3.21-7-4.4a42.54,42.54,0,0,0-5.47,6.72H86c-2.41.7-4.67.63-6.53-1.35-1.23-3.25-1.56-6.47.43-9.58,4.08-2.14,8.64-2.72,13-4C94.35,44.68,95.09,43.16,96.18,42.8Z"/><path class="cls-7" d="M81.79,23.85c-1.41-.36-2.58.31-3.77.9C71.12,24,64.58,21.6,57.84,20.07c-1.5-5.9,3.84-10.83,11.25-10.36a10.59,10.59,0,0,1,7.31,2.21c2,1.37,4.15,2.6,6.07,3.8C84.07,18.72,82.43,21.24,81.79,23.85Z"/><path class="cls-8" d="M69.08,9.7c-4.52,0-7,3.6-10.28,5.85-1.4,1-.65,2.73-.91,4.13-2,1.75-4,1.83-5.9-.11-.21-2.15.63-4.1,1.16-6L58.09,9.7C61.75,7.54,65.42,8.5,69.08,9.7Z"/><path class="cls-7" d="M36.8,83.92C30.66,86,24.34,86.2,18,85.67c-2.18-6.34-.14-12.19,2.08-18A3.32,3.32,0,0,1,23.8,68c4.71,3.53,9.77,2.11,14.89,1.43,3.85-.51,4.9-4.28,7.74-5.88,1.33.11,1.78.9,1.68,2.13l-.12.15A64.31,64.31,0,0,1,43.4,82,7.7,7.7,0,0,1,36.8,83.92Z"/><path class="cls-9" d="M21,67.8c-2.25,1.79-1.11,4.59-1.61,6.8-.81,3.54-1.88,7.27-1.43,11.07a36.68,36.68,0,0,1-7-5.54c.15-5.84.41-11.66,2-17.35,2.42-4.63,6.16-8.25,9.4-12.24.91-1.12,2-3,4.06-1.38.66,3.4-1,6.42-1.55,9.63C23.42,61.73,23.83,65.46,21,67.8Z"/><path class="cls-10" d="M43,81.83c.54-4.88,2.53-9.39,3.66-14.13C46.79,67,47,66,48,65.83c1.95,2.44,3.79,5,5.89,7.27a7.31,7.31,0,0,1,1.51,3.58c.95,4,1.72,7.94,2.56,11.92-4,.61-7.93-1.51-12-.75-1.1-.86-3.12-.77-3-2.9A2.33,2.33,0,0,1,43,81.83Z"/><path class="cls-11" d="M10.93,18.8c-.32,3.18,1.8,6,1,9.22l10,10.59c-.85,2.55-2.66,1.86-4.34,1.21a20,20,0,0,1-5.39-3.24,5.54,5.54,0,0,1-1-1.89C5.81,28.71,3.42,21.25.9,13.85A32.85,32.85,0,0,0,7.78,15C10.57,15.83,9.28,18.18,10.93,18.8Z"/><path class="cls-12" d="M26,48.78c-3.77,2.57-5.81,6.69-8.84,9.93-1.34,1.43-2.29,3.19-4.16,4.08L12.88,61c-1.11-3.69.46-6.78,2.2-9.84,1.47-1.85,1.54-4.22,2.32-6.32,1-1.17,2.32-1.18,3.68-1.15,2.09.36,4.21.62,6,1.88C27.9,47,27.48,48.11,26,48.78Z"/><path class="cls-13" d="M15.08,51.14c.38,3.53-1.49,6.55-2.2,9.84-1.39.39-1.63,2-2.71,2.6-1.63.32-2.69-.13-3-1.94,1-2.55,3.28-4.31,4.7-6.54-.58-3-5.65-3.86-3.45-7.89C11.72,46.89,12.76,50.07,15.08,51.14Z"/><path class="cls-14" d="M21.06,44.73l-3.66.08c-1.55-2-4.2-1.58-6.3-2.72a23.45,23.45,0,0,1,.08-7.39.88.88,0,0,1,.83.87c1.53,2.24,3.79,3.63,6,5.16C19.36,41.72,21.37,42.37,21.06,44.73Z"/><path class="cls-15" d="M43,81.83v3.12c-2.16.68-2.76,3.7-5.41,3.63-2.53-1.2-.51-3.1-.75-4.65C38.57,82.38,40.89,82.48,43,81.83Z"/><path class="cls-16" d="M86,88.72c.12-4.8-.37-9.6.26-14.39.05-.41.59-.75,1-1.28,2.44,1.08,1.82,3.64,2.62,5.42a31.9,31.9,0,0,1,1.46,5.15c2.09,2.16,5.69-.16,6.66,3.24C94.13,88.1,90.2,89.17,86,88.72Z"/><path class="cls-9" d="M48.1,65.68l-1.16-1.92c-.56-2,.4-3.23,1.94-4.22,2.3-.34,2.66,2.15,4.23,2.87a24.45,24.45,0,0,0,5.11,1.41A55,55,0,0,0,74,61.23c1.86-1,3.44-2.41,5.35-3.3l.7-.07c2.05-.2,4.1-.38,5.92.91-3.17,6.13-9.34,8.09-14.92,11C66,72.45,61,71.35,55.55,70.5,53,69.48,51.2,66.55,48.1,65.68Z"/><path class="cls-17" d="M32,36.81c6.19,1.36,11.83,4.35,17.93,6a1.5,1.5,0,0,1,2.24.16,2.57,2.57,0,0,1-1.3,2.12,38.37,38.37,0,0,1-17.75,3.17c-5.21-.22-5.87-.89-6.31-6.5C27.35,38.83,29.4,37.52,32,36.81Z"/><path class="cls-18" d="M52,19.57l5.9.11c6.4-.43,12.12,2.51,18.18,3.74.73.15,1.65.37,1.95,1.32-1.21,1.92-2.44,3.82-5,4.07a2,2,0,0,1-1.35.6c-2.82-.4-5.11-2.25-7.83-2.93-4.62-.51-9.38,0-13.76-2.19-1.28-.65-1.83-1.18-1.16-2.52C49,19.68,49.91,18.82,52,19.57Z"/><path class="cls-19" d="M32,36.81c-.68,2-3.29,2.06-4.06,4-1.17,1.5.27,3.53-1,5-2.11.46-3.92-.69-5.88-1.08-1.2-2.06-3.51-2.67-5.24-4s-4-2.34-3.81-5.13c2.15,1.13,4.4,2.11,6.42,3.43,1.45.95,2.41.27,3.52-.38a56.44,56.44,0,0,0,5.92-2.39C29.54,35.34,30.71,36.11,32,36.81Z"/><path class="cls-20" d="M48.92,21.78l.29,1.45c3.57,1.67,7.36,1.53,11.15,1.62,1.56,0,3.35-.82,4.68.77a5.19,5.19,0,0,1-3.83,3.61c-1.31-.06-2.46-.89-3.72-.81-1.4.63-1.51,2.23-2.61,3-1.15.56-2.3,1.36-3.42,0-.58-1.93,0-3.74.54-5.55-.63-1.72-2.33-.58-3.49-1.34C47.77,23.54,47.64,22.59,48.92,21.78Z"/><path class="cls-21" d="M52,25.81l0,6.07c1.45,2.24,2.71,4.6,4.31,6.74A2.08,2.08,0,0,1,56.16,40c-1.78,1.31-3.48.38-5.2-.17-1.47.21-2.37-1-4-1.27C48.61,34,49.78,29.73,52,25.81Z"/><path class="cls-22" d="M51,39.78c.43-.83,1.08-1.11,1.88-.57,1,.67,2.09.5,3.15.65a2.16,2.16,0,0,1,.54,2.52c-1.27,1.19-2.72,1.06-4.22.59l-2.35-.17C49.77,41.62,50.71,40.81,51,39.78Z"/><path class="cls-23" d="M52.29,43c1.22-.17,2.4-1,3.69-.28,4.95.06,7.24-4.38,10.94-6.46,3.37.47,4.21,3.57,5.94,5.74-.3,2.38-1.4,4.71-.5,7.18,2.61,0,4.87-1.83,7.54-1.3l.19,10,0,0c-4.65-.85-7.94-4.13-11.71-6.56a13.44,13.44,0,0,0-12.63.35c-3,1.57-6,3.26-9,5a3.15,3.15,0,0,1-2.88.2c.06-5.7,3.95-9.2,7.45-12.92Z"/><path class="cls-24" d="M72.86,42A3.87,3.87,0,0,1,70,39.75a8.19,8.19,0,0,0-2.95-3c-2.62-1.29-3.42-3.29-2.33-6C66.76,28.63,69.46,29,72,28.83l1,0c.56,1.15,1.48,2.36.9,3.63C72.49,35.54,73.31,38.81,72.86,42Z"/><path class="cls-25" d="M96.18,42.8l-1.56,2.72c-1-.39-1.58-.82-1.74-1.69C94,43.47,94.94,42.68,96.18,42.8Z"/><path class="cls-26" d="M49.11,59.77l-2.16,4c-1.21.74-1.41,2.13-2,3.25a6.58,6.58,0,0,1-5,3.62c-2.44.26-4.81.82-7.22,1.13-3.17.41-6.19.08-8.71-2.32a12.82,12.82,0,0,0-3-1.62c1-3,1.06-6.3,2.86-9.06,3.79,4.11,8.25,4.38,13.21,2.49a59.13,59.13,0,0,1,8.07-2.6C46.53,58.32,48.47,57,49.11,59.77Z"/><path class="cls-27" d="M49.11,59.77c-.47-1-1.11-.85-2-.52-3.06,1.1-6.2,2-9.24,3.12a22.15,22.15,0,0,1-10,1.42c-1.49-1.28-4.3-1.82-4-5,0-3.46,1.67-6.59,2.1-10,.45-1,1.27-1.78,1-3,.54-1.63-.84-3.65,1-5v5.56c8.22,1.42,15.81-.14,23.33-2.42-2.14,3.5-4.25,7-6.44,10.5A4,4,0,0,0,44,56.7c1.67,1.16,2.85-.3,4.22-.79s2.44-.88,3.62.1c1.81,2.53,2.08,5.08.11,7.65C50.39,62.81,51.38,60.1,49.11,59.77Z"/><path class="cls-28" d="M75.06,61.84a4.61,4.61,0,0,1-3.82,1.9c-4.28.08-8.4,1.11-12.57,1.86-.2,0-.48-.38-.72-.59a116.16,116.16,0,0,1,3.37-13,2.79,2.79,0,0,1,2.41-1.51C67.21,54.57,72.62,56.73,75.06,61.84Z"/><path class="cls-29" d="M61.88,51.93C61.2,56.48,61.37,61.29,58,65l-6-1.35c-.2-2.59.68-5.29-.81-7.74C53.86,52.3,57.68,51.6,61.88,51.93Z"/><path class="cls-30" d="M75.06,61.84c-2.73-2.23-5.55-4.37-8.16-6.73-1.25-1.13-3.07-2-2.87-4.23,1.65-1.27,3.3-2.16,5-.11a71,71,0,0,1,11,7.06C79,60,77,60.83,75.06,61.84Z"/><path class="cls-31" d="M72,28.83c-2.06,1.6-4.63,1.46-7,2-4.13,1.44-5.52,5.93-9,8.07-2.48-1.7-4.56-3.62-4-7l3-1.14c1.6-1.65,3.35-2.92,5.85-2.17,2.05,0,1.91-3.18,4.16-3Z"/><path class="cls-32" d="M60.87,28.57c-2,.54-3.65,2.12-5.85,2.17-.13-1.53-.09-3,1.76-3.86C58.35,26.62,59.68,27.42,60.87,28.57Z"/><path class="cls-33" d="M56,38.93c2.17-1.71,1.69-4.8,3.76-7,1.7.33,3.28-1.18,5.26-1.09-.41,2.31,1.14,4,2,5.84-2.44,1.14-2.41,4.22-4.62,5.56-1.44,1-3.41.12-5,1.28-.62.46-1.16-.19-1.41-.86V39.85Q56,39.39,56,38.93Z"/><path class="cls-34" d="M69,50.78c-1.7-1.35-3.33.49-5,.11l-2.15,1-10.75,4c-1.11,0-1.86,1.21-3.06.92-1.08.52-2.09.87-2-1,3.5-2.08,7-4.09,10.47-6.27,1.52-1,3.1-.87,4.72-.88,2.44,0,4.87,0,6.9,0A2.28,2.28,0,0,1,69,50.78Z"/><path class="cls-35" d="M46,55.86c.3,1.12,1.25.89,2,1-.64,1.52-2.4.71-3.44,1.58-.2.17-2.14-.43-.64-1.72Z"/></g></g></svg>