<svg xmlns="http://www.w3.org/2000/svg" viewBox="0 0 109 103.69"><defs><style>.cls-1{fill:#b8902e;}.cls-2{fill:#7b7f85;}.cls-3{fill:#c2868f;}.cls-4{fill:#9ca4af;}.cls-5{fill:#cacfd7;}.cls-6{fill:#9da4af;}.cls-7{fill:#b99336;}.cls-8{fill:#ba963f;}.cls-9{fill:#82888e;}.cls-10{fill:#b2903d;}.cls-11{fill:#66464a;}.cls-12{fill:#884e56;}.cls-13{fill:#c1848d;}.cls-14{fill:#895058;}.cls-15{fill:#89535b;}.cls-16{fill:#bc953c;}.cls-17{fill:#bc9439;}.cls-18{fill:#8d646a;}.cls-19{fill:#67464b;}.cls-20{fill:#895157;}.cls-21{fill:#884f55;}.cls-22{fill:#797e84;}.cls-23{fill:#66454a;}.cls-24{fill:#9b6c74;}.cls-25{fill:#cacfd6;}.cls-26{fill:#797e83;}.cls-27{fill:#9aa1ab;}.cls-28{fill:#9499a0;}.cls-29{fill:#a4aab3;}</style></defs><title>kalevala</title><g id="Слой_2" data-name="Слой 2"><g id="Слой_1-2" data-name="Слой 1"><path class="cls-1" d="M72.78,75.6l-1.9,3c.42,1.89,3.4,3,1.9,5.59-2.52.11-2.52.11-5.21-2.07l-10.35,12C58.1,95.92,59.84,97,61,98.49s1.23,1.64-.87,3.93c-2.63-.5-3.55-3.31-6-4.52L49,103.69H47c-.81-3.82,1.85-6.07,4.12-8.73-2.53-3.9-6.67-6.29-9.3-10,.38-4.36,4.78-4.71,7.1-7.14,5.18-4.7,11.3-4.08,17.49-3.12C68.49,75.29,70.86,73.93,72.78,75.6Z"/><path class="cls-2" d="M.89,35.77q-.45-.06-.89-.09v-2c7.6.37,15.2.32,22.8,0a22.49,22.49,0,0,0,8.06-2c1.36-.79,2.87-1.22,4.29-1.87,2.23-.52,4.48-1,6.74-1.35C45.51,27.87,48,29,48.42,33c-1.11,2.18-3.35,1.86-5.22,2.31-10.34,2.48-21,3.43-31.22,6.44a4,4,0,0,1-1.45.52c-2.24.05-3.52-1.57-5-2.89S3,36.36.89,35.77Z"/><path class="cls-3" d="M109,73.69c-5.92-.38-11.56-2.28-17.4-3.15-2.11-.31-4-.94-6.1.1-.6.3-1.26-.16-1.63-.79,4.14-4,9.72-4,14.79-5.38a9.34,9.34,0,0,0,3.93-1,1.26,1.26,0,0,1,1.23.29c1.56,3.08,2.92,6.28,5.19,9Z"/><path class="cls-1" d="M48,32.61a10.15,10.15,0,0,0-3.31-3.5c-3.3.46-6.34,2-9.68,1.6-1.35.65-2.29.58-2.19-1.27l3.81-5.29c-.23-1.31-1.78-2.35-1.13-4,1.41-1,2.77-.59,4.07.44,4-3.61,6.81-7.92,10.32-11.69C49,6.32,46.21,5.37,45.34,3c1.89-3,1.89-3,7.26,1.74,3-.5,3.24-5.21,7.1-4.67C61.4,3.94,57.19,5.33,56.44,8L67.26,18.65c2.21-.15,2.39-5.68,6.61-3.52.53,3.43-3,4.84-3.9,7.54l-.37.62a4.28,4.28,0,0,1-2.11,1.28c-6.8,1.34-12.7,4.55-18.18,8.66A1.67,1.67,0,0,1,48,32.61Z"/><path class="cls-4" d="M86,31.72l.05,1.93A2.85,2.85,0,0,1,84.51,37c-8.7,5.37-16.84,11.65-26.11,16.1a3.42,3.42,0,0,1-1.93-1c-2.36-2.57-2.34-5,.43-7.27,7.87-6.41,15.27-13.36,23.23-19.67a7.64,7.64,0,0,1,3-1.64c1.4,1,.71,3,1.88,4.09A4.42,4.42,0,0,1,86,31.72Z"/><path class="cls-5" d="M58,52.72C66.17,47.45,74.3,42.13,82.5,36.94c1.44-.91,2.82-1.71,3.55-3.29,1.41.7.85,2,.9,3.07-5.1,6.95-11,13.22-16.61,19.73A54.11,54.11,0,0,0,66.52,61a3.79,3.79,0,0,1-1.81,1.2C60.22,60.64,58.34,57.23,58,52.72Z"/><path class="cls-6" d="M66,60.67a2.92,2.92,0,0,1,.82-2.24C73.46,51.64,79.34,44.17,85.56,37c.25-.28.92-.19,1.4-.28.29,3.17,2,5.6,4.06,7.85.82,1,1.74,1.91,1.09,3.37-7.12,4.85-15,8.38-22.43,12.67C68.56,61.26,67.23,61.75,66,60.67Z"/><path class="cls-4" d="M103.81,63.73a5,5,0,0,0-.89,0,7.17,7.17,0,0,1-4.08.9C93,66,87.21,63.44,81.41,64.76a9,9,0,0,1-4.09-.19c-2.93-2.1-.39-3.12,1-3.64,6.36-2.34,12.34-5.69,19-7.11a4,4,0,0,1,3.32,1.81A4,4,0,0,0,102,58.15C104,59.58,104.24,61.54,103.81,63.73Z"/><path class="cls-4" d="M70,22.67,81,22.85a2.38,2.38,0,0,1-1,2.55c-6.15,4.43-12.64,8.38-18.78,12.84-1.52,1.11-3.08,2.69-5.35,1.66-1.08-1.6-.26-3,.82-4,4.59-4.26,7.67-10,13.25-13.3Z"/><path class="cls-7" d="M100.7,55.64c-1.09.23-1.75-.71-2.65-1a12.1,12.1,0,0,1-6.07-7c-.33-1-1.23-1.85-1-3.06,2.23.91,3.29-.71,4.57-2s2.28-3.49,5-2.78c1.16,4-2.63,5.53-4.32,8.51,1,1,2,2.27,3.13,3.36S101.28,54,100.7,55.64Z"/><path class="cls-8" d="M86,31.72a5.88,5.88,0,0,1-1-4.09C87.73,28.28,87.92,29,86,31.72Z"/><path class="cls-9" d="M80,24.66,81,22.85c.82-.14,1.65-.32,2.1.68A3.15,3.15,0,0,1,81,25.68,1.19,1.19,0,0,1,80,24.66Z"/><path class="cls-10" d="M32.87,29.45c.26,1.23,1.23,1.24,2.19,1.27-1.08,1.72-2.78.71-4.2,1A4.49,4.49,0,0,1,32.87,29.45Z"/><path class="cls-11" d="M49,78.76c-1,2.06-3.31,2.49-4.9,3.82-.87.72-1.91,1.18-2.32,2.34-2.76,1.84-5.33,4-8.61,4.93-2.51-.32-1.93-2.56-2.29-4-.46-1.88-.38-3.89-1-5.77-.21-4.44-1.36-9,.87-13.23a1.83,1.83,0,0,1,2.19,0c2.42,1.91,3.46,4.82,5.25,7.53,2.92-.75,5.11-3,7.79-4.17,1.61-.73,3.28-2.11,4.76.24C51.57,73.5,52,76.49,49,78.76Z"/><path class="cls-12" d="M16,66.67l-3.08-7c-2.34-.84-2.07-3.2-2.88-4.94L7,52.57a1.18,1.18,0,0,1-.31-.81c0-.3,0-.45.09-.45a37.55,37.55,0,0,1,6.56-6.93c4.88,2,7.2,6.26,9.49,10.58-.39,4-2.76,7.18-4.38,10.66A1.87,1.87,0,0,1,16,66.67Z"/><path class="cls-13" d="M16,66.67a2.19,2.19,0,0,0,1.73-1.6c.77-3.75,3.57-6.62,4.32-10.36a1.4,1.4,0,0,1,1.53-.1A8.86,8.86,0,0,1,27.26,61c-.18,5,1.63,10.12-1.35,14.83a4.11,4.11,0,0,1-.91-.12,17.24,17.24,0,0,1-2.95-3c0-2.17-2.09-2.15-3.29-3.07S15.76,68.74,16,66.67Z"/><path class="cls-14" d="M25.91,75.79,26,59.66c3.65.93,5.42,3.46,6,7-1.22.52-.93,1.6-.94,2.55,0,3.81,0,7.63,0,11.44.27,2.38,1.82,4.91-.83,6.94C28.22,83.87,25.91,80.25,25.91,75.79Z"/><path class="cls-15" d="M7,51.64q0,.46,0,.92c-2-1.15-3.27-3.07-4.84-4.48-.73-2.52.17-4.67.75-6.85l-2-5.46c.39-.89,1-1.35,1.87-.65,1.22,1,2.6,2,3.24,3.57C7.77,42.89,8.74,47.16,7,51.64Z"/><path class="cls-16" d="M10.06,54.76c1.58,1.29,2,3.25,2.88,4.94-1.52.45-2.14,1.91-3.18,2.89a2.89,2.89,0,0,1-3.15.8c-1.11-1.58-.58-2.91.58-4.3S10.08,56.84,10.06,54.76Z"/><path class="cls-17" d="M22.06,72.64l2.2.13c1,.93.62,2,.74,2.89-1.07.74-2.16,1.44-3.65.73C20.85,75.06,20.54,73.7,22.06,72.64Z"/><path class="cls-18" d="M30.17,87.62C32,85.5,30.54,83,31,80.69c2,2.46.38,5.54,1.34,8.19a1.39,1.39,0,0,0,.87,1,1.56,1.56,0,0,1-1.8.7Z"/><path class="cls-19" d="M77.05,63.8l3.92,0c2.46,2.3,2.39,4.93,1,7.73l-9.2,4.11c-1.45.12-2.93-.05-4.27.84-.6.4-1.23,0-1.55-.72-1.8-3.39-2.78-6.81-.29-10.32C69.9,63.4,73.45,63.39,77.05,63.8Z"/><path class="cls-20" d="M82,71.5c.64-2.7-1-5.11-1-7.73a7.13,7.13,0,0,1,6.2-.93c3.92,1.08,7.87.59,11.8.93.59.47,1.6.73,1,1.85-5.59.51-10.72,2.78-16.08,4.22C82.74,69.82,83.27,71.7,82,71.5Z"/><path class="cls-21" d="M67,65.72c-1.35,3.33.57,6.68,0,10-3.24-.17-6.56.46-9.36-1-3.4.69-5.53,3.3-8.56,4.07,1.64-2.94.73-6.14.93-9.23.23-2.14,2.06-2.41,3.56-2.75,4-.91,7.95-1.89,12.07-1.88A2.56,2.56,0,0,1,67,65.72Z"/><path class="cls-22" d="M23,54.7l-.89,0c-3-3.33-5.11-7.52-9.08-10-1.8-.22-3.32-.71-3-3l1,0c1.76-1.5,4-.7,6-1.29,1.78-.15,3.56,0,5.34-.21a190.25,190.25,0,0,1,27.62,1.59c2.85,2.25.06,3-1.2,3.64A115.5,115.5,0,0,1,36,50.54a22.34,22.34,0,0,0-5.28,2.14C28.19,53.6,26,55.86,23,54.7Z"/><path class="cls-4" d="M51,42.7c-9.69.4-19.28-1.65-29-1.06a5.7,5.7,0,0,0-5,0l-6,0,.22-1.54c10.59-2.3,21.37-3.62,31.85-6.39,1.64-.43,3.68.88,5-1.13l1,.1c3.18,2.1,3,5.85,4.4,8.85A2.14,2.14,0,0,1,53,42.94,1.63,1.63,0,0,1,51,42.7Z"/><path class="cls-23" d="M10,41.69c.32,1.69,2.41,1.62,3,3-.69,3.43-3.57,5-6,6.93-.59-4.3-1.42-8.58-1-13Z"/><path class="cls-24" d="M99.95,65.62l-1-1.85h4A2.52,2.52,0,0,1,99.95,65.62Z"/><path class="cls-25" d="M53.06,41.77c-2.7-2.41-2.32-6.2-4-9.05,5.5-6.44,13.36-8,21-10.08-3.78,4.35-7.3,8.95-11.42,13-1.14,1.12-2.76,2-2.61,4C55.56,41.12,54.8,42.12,53.06,41.77Z"/><path class="cls-22" d="M53.06,41.77,56,39.65c3.44-.5,5.76-3.05,8.31-4.94A181.86,181.86,0,0,1,80,24.66a1.17,1.17,0,0,1,1,1l-25.45,22c-.37,1.69,1.07,2.65,1.49,4,1,1.72,0,3-1.26,3.7-7,3.94-13.58,8.66-20.9,12.07a5.16,5.16,0,0,1-1.94.27,1.33,1.33,0,0,1-1-1,46.93,46.93,0,0,0-6-7l-3-5a28.52,28.52,0,0,0,7-3c2.35.15,4.31-1.19,6.48-1.73,4-1.08,7.86-2.76,11.92-3.67,2.15-.48,3.41-1.94,4.56-3.6Z"/><path class="cls-4" d="M32.94,67.73q10.34-6.16,20.68-12.33c1.49-.89,3.6-1.26,3.43-3.72a1.15,1.15,0,0,1,1,1c1.26,3,3.56,5.45,5.17,8.29.38.67,1.11.6,1.76.63,1.41,1.07,2.21,2.29,1,4-4.72,1.39-9.71,1.4-14.4,3-.63.21-1.29.22-1.6.91L37.2,76.64C37.07,72.92,34.21,70.74,32.94,67.73Z"/><path class="cls-26" d="M66,65.66l-1-4,1-1c2.48-.37,4.42-1.89,6.58-3C79.07,54.42,85,50,92,47.64c2.95,1.54,3.82,4.87,6.07,7L76.68,62.8c-.1,0-.24.27-.21.31a7.94,7.94,0,0,0,.58.69,40,40,0,0,1-10,1.92Z"/><path class="cls-27" d="M53,42.68v3.6C47.16,47.62,41.82,50,36,50.7c-1.05.38-1.23-.11-1-1,4.4-1.7,8.83-3.34,13.19-5.15,1-.41,2.29-.57,2.76-1.84Z"/><path class="cls-28" d="M35,49.69a1.14,1.14,0,0,0,1,1c-1.91.87-3.7,2.5-6,1C31.69,51.07,33,49.63,35,49.69Z"/><path class="cls-29" d="M17,41.65a3.27,3.27,0,0,1,5,0Z"/></g></g></svg>