<?xml version="1.0" encoding="utf-8"?>
<!-- Generator: Adobe Illustrator 21.1.0, SVG Export Plug-In . SVG Version: 6.00 Build 0)  -->
<svg version="1.1" id="Слой_1" xmlns="http://www.w3.org/2000/svg" xmlns:xlink="http://www.w3.org/1999/xlink" x="0px" y="0px"
	 viewBox="0 0 102.8 103.8" style="enable-background:new 0 0 102.8 103.8;" xml:space="preserve">
<style type="text/css">
	.st0{fill:#884E56;}
	.st1{fill:#8C753E;}
	.st2{fill:#9DA5AF;}
	.st3{fill:#787D83;}
	.st4{fill:#9EA5B0;}
	.st5{fill:#CBD0D8;}
	.st6{fill:#D9B661;}
	.st7{fill:#586471;}
	.st8{fill:#89743F;}
	.st9{fill:#8C555C;}
	.st10{fill:#7B5D15;}
	.st11{fill:#7C5F1A;}
	.st12{fill:#FAFBFB;}
	.st13{fill:#915E66;}
	.st14{fill:#E4E9EC;}
	.st15{fill:#D2D4D6;}
	.st16{fill:#DABF80;}
	.st17{fill:#8C753F;}
	.st18{fill:#8F585F;}
	.st19{fill:#D8B460;}
	.st20{fill:#D9BD7E;}
	.st21{fill:#D6BA7E;}
	.st22{fill:#DBB760;}
	.st23{fill:#D4B97A;}
	.st24{fill:#C0A466;}
	.st25{fill:#797E84;}
	.st26{fill:#A2B6C9;}
	.st27{fill:#697E95;}
	.st28{fill:#5F6061;}
	.st29{fill:#E6E7E8;}
	.st30{fill:#E2E4E7;}
	.st31{fill:#F6F6F7;}
	.st32{fill:#F4F3F4;}
	.st33{fill:#DDE3E5;}
	.st34{fill:#234362;}
	.st35{fill:#D8BD7D;}
	.st36{fill:#687F95;}
	.st37{fill:#B89031;}
</style>
<title>karelia</title>
<g id="Слой_1-2">
	<path class="st0" d="M46,103.8c-0.8-3.8,2.2-6,4.2-8.8c-2.8-3.7-6.4-6.6-9.5-9.9c-2,0.9-2.7,3.7-5.4,3.5c-2.9-3.1,1.3-4.4,1.8-6.8
		c-2.2-3.1-6-4.6-8-8c0.4-0.4,0.8-0.8,1.4-0.9c3.7-0.7,7.2,0.7,10.8,1c5.4,0.9,11,0.9,16.5,0.1c1.6-0.3,3.2-0.4,4.8-0.3
		c2.5,0.2,5,0.1,7.4-0.3c1.2-0.1,2.8-0.8,3.1,1.3l-3,3.9c0.3,2.2,3.6,2.9,2.5,5.7c-2.5,2-3.8-0.7-5.7-1.6c-4,3.5-6.8,8-10.4,11.7
		c0.9,3,5.5,3.8,4.3,8.1c-3.7,0.7-4.7-2.7-7.3-4.2l-5.4,5.7H46z"/>
	<path class="st1" d="M16,69.8c-2.2-0.7-4.4-1.3-6.7-1.7c-4.3-0.5-7.1-2.8-9.3-6.3v-3l2-0.9c1.7-0.5,3.4-0.8,5.2-1.1
		c1.6-0.1,3.1-0.5,4.6-1.2c0.9-0.4,1.9-0.7,2.8-0.9c1.6-0.4,3.2,0,4.6,0.8c2,3.9-0.4,7.3-1.2,10.9C17.7,67.8,17,68.9,16,69.8z"/>
	<path class="st0" d="M15.8,48.8c1.9-3.4,4.9-5.8,7.3-9.1c-0.7-1.7-3.1-2.8-1.9-5.4c2-1.8,3.3,1,5.1,1.5l9.6-11.3
		c-0.6-1.4-1.6-2.4-1.5-3.9c1.3-1.6,2.9-0.6,4.6-0.2c3.9-3.2,6.5-7.7,10-11.1c-0.8-3.1-5.7-4.1-3.5-8.2c3.2-0.4,4,2.8,6.3,3.9
		c2.6-0.8,3.2-4.5,6.3-4.9c1.8,2.5,1.8,2.5-3.7,9.2l9.6,8.5c0.8,2.1-0.4,4.6,1.4,6.5c0.2,3.5-3.1,5.4-4.1,8.3
		c1.6,7.3-1.3,12.2-8,13.5c-3.9,0-7.6-1.9-11.5-1.8c-5.8,0.5-11.4,2-17.2,3C21.7,47.5,19.1,50.5,15.8,48.8z"/>
	<path class="st2" d="M90.9,34.8c-0.8,0-1.5,0.4-1.9,1.1c1.2,2.6,2.6,5.3,5.1,7.2c3.2,3,0.6,4.4-1.7,5.9c-2.7,0.9-5,3-8.1,2.6
		c-6-0.6-12-0.3-18-0.1c-1.1,0-2.1-0.6-2.5-1.7c0.7-2.4,2.7-2,4.5-2.2s3.6,0.1,5.2-0.7c1.8-1.7,0.7-3.9,1.3-5.8
		c1.5-2.1,3.8-2.3,6.1-2.4c-2,0.1-3.9,0.5-5.9,0.5s-3.8,0-5.8,0.2c-1.3-0.2-2.2-0.8-2.2-2.3c1.5-2,4-1,6.1-1.9c1.6-2,0.9-4.7,1.5-7
		c0.2-0.4,0.5-0.8,0.9-1c2.1-1,4.2-1.8,6.2-2.9c1.5-0.5,3.1-1.6,4.2,0.7l4.2,6.9C90.9,32.6,92.2,33.3,90.9,34.8z"/>
	<path class="st3" d="M85,50.8l7-3c3,2.3,4.4,6,7.7,8c0,1-1.4,0.7-1.5,1.6l1.7,3.4c-0.4,1.1-1.3,1.9-2.4,2.3
		c-6,1.7-12.3,1.1-18.5,1.7c-5.8-1.8-4.3-6.6-4.4-10.8C77.6,51.5,80.9,50,85,50.8z"/>
	<path class="st4" d="M65,23.8l-2.9-1.6c0.2-1.9,2.3-2.7,2-4.5c3.2-2.2,4-6.3,6.8-8.8c2.5-0.1,4.9,1.3,5.9,3.6
		c0.8,4.2,1,8.3-1.3,12.2c-1,0.9-2.3,1.5-3.7,1.5C69.4,26.8,66.7,25.9,65,23.8z"/>
	<path class="st5" d="M75,24.8c1.3-4.3,1-8.6,1-13c-0.4-0.4-0.4-0.9-0.2-1.4c1.4-1.6,2.9-2.9,5.2-1.6c1.2,4.8,4.7,8.2,7,12.2
		c0.3,1.9-1.8,2.4-2.1,3.9c-1.3-1.4-2.5,0.1-3.8-0.1c-1.8,0.8-3.8,1.2-5.7,0.9C75.8,25.6,75.4,25.2,75,24.8z"/>
	<path class="st6" d="M73,74.7c-2.7-0.9-5.2,0.4-7.7,0.6c-0.9,0.1-1.5-0.4-2.3-0.5c-1.5-1.3-5.5-0.7-3.6-4.6c4.6-2,9.5-2.3,14.4-2.8
		c4,0.2,7.6,1.2,10.3,4.5c-2.3,1.8-5.4,0.2-7.9,1.7C75.2,74.1,74.1,74.4,73,74.7z"/>
	<path class="st7" d="M15.8,48.8c3-0.3,5.4-2.2,8.3-2.9c2.2,2.1,5.8,3.6,3.3,7.7c-2.7,1-5.6,0.5-8.4,0.6c-3.1-0.3-6.4,0.6-9.5-0.8
		c-1.3-3,0.9-2.6,2.6-2.6L15.8,48.8z"/>
	<path class="st8" d="M84,71.9c-3.5-0.6-6.2-3.7-10.1-3.2c0.1-1.5,1.3-2,2.4-2c5.8-0.2,11.4-1.9,17.3-1.1c1.2,0.4,2.5,0.6,2.4,2.2
		C92.1,69.5,88.1,70.9,84,71.9z"/>
	<path class="st9" d="M99.7,55.8c-3,0.3-4.4-1.9-5.7-4c-0.7-1.3-1.4-2.6-2-4l2.8-1.6c0.2-1.2-1.1-2-0.7-3.2c1.8-1.1,2.5-4.2,5.8-3
		c1.2,4.3-3.5,5.6-4.6,8.8c0.6,1.9,2.4,2.9,3.7,4.4C99.7,54,100.3,54.7,99.7,55.8z"/>
	<path class="st10" d="M9,52.8l10.1,0.2c0.1,0.7-0.2,1.4-0.8,1.7c-1.3,0.9-3.1,0.3-4.4,1.2l-1.8,1c-1.8-0.3-3.4,0.6-5.1,1
		s-3.3,1.5-5,0.1c1.8-1.8,2.8-4.5,5.6-5.3C8,52.3,8.6,52.3,9,52.8C9,52.7,9,52.7,9,52.8z"/>
	<path class="st11" d="M96,67.8c-0.3-1.1-1.3-0.9-2.2-1c-0.3-3,2.7-3.4,4.2-4.9l1.9-1c1.7,1,1.6,3.1,2.9,4.5
		C100.4,66.6,98.4,67.6,96,67.8z"/>
	<path class="st12" d="M76,10.8c0,0.3,0,0.7,0,1c-1.7-0.9-3.7-1.4-5-2.9c1.2-2.1,2.9-3.8,5-5.1C78,6.2,77.4,8.5,76,10.8z"/>
	<path class="st13" d="M9,52.8l-1.3-0.1c-0.5-1.4-2.2-2-2.4-3.9c0.4-1.6,1.5-2,3.2-1.2c1.4,0.8,2.7,1.9,3.6,3.3
		C11.1,51.5,9.7,51.5,9,52.8z"/>
	<path class="st14" d="M76,10.8v-7c0.4-1,0.9-0.7,1.4-0.1c1.2,1.7,2.4,3.4,3.6,5.1C79,8.8,77.7,10.2,76,10.8z"/>
	<path class="st15" d="M90.9,34.8c0.3-1.2-0.7-2-0.9-3c1.8-0.1,1.9,1.4,2.6,2.5C92.2,34.9,91.6,34.8,90.9,34.8z"/>
	<path class="st16" d="M16,69.8c0.1-1.1-0.4-2.4,1-3c7.1-5.3,14.3-10.6,22.3-14.7c3.3,0.1,6.6,1.2,9.3,3c1.1,1.1,1.2,2.2-0.1,3.3
		c-2.6,1.2-5.6,1.6-8.1,3.3c-3.2,1.7-6.6,3-10.1,3.9c-4.5,1.5-8.6,3.8-13.2,5C16.5,70.8,16.1,70.5,16,69.8z"/>
	<path class="st17" d="M17.1,70.6c1.8-2.7,5-2.5,7.5-4c1.7-0.8,3.6-1.4,5.4-1.9c3.7,1.8,0.9,4.6,1.2,6.9c-0.2,0.8-0.6,1.5-1.2,2.1
		c-0.3,0-0.7,0-1,0c-1-0.1-1.7-1.2-2.8-0.9c-1.7,0.7-3.6,0.2-4.7-1.2L17.1,70.6z"/>
	<path class="st18" d="M21.4,71.7c1.7-0.1,3.3,0.3,4.7,1.2c-0.8,1-1.5,2.2-2.4,3.1c-0.9,1-2.4,1.2-3.4,0.3
		C19.4,74.4,21,73.2,21.4,71.7z"/>
	<path class="st19" d="M58.1,74.9c-0.6,1.1-1.7,0.8-2.7,0.8c-4.1,0-8.3,0-12.4,0c-0.8,0-1.7,0.1-2.1-0.8c-1.7-2.3-1.4-5.1-1.5-7.7
		c0.9-2.3,2.8-3,5.1-3.2c2.8,0.4,4.3,2.5,5.9,4.4c0.3,0.4,0.5,0.8,0.7,1.2C51.9,73.5,55.8,73.1,58.1,74.9z"/>
	<path class="st20" d="M40,66.8c1.5,2.6,0.8,5.4,0.9,8.2c-3.7,0.4-7.3-1.5-11-1.1v-2c2.6-3.2,5.6-5.8,9.9-6.3
		c0.3,0.1,0.4,0.4,0.4,0.8C40.2,66.6,40.1,66.8,40,66.8z"/>
	<path class="st21" d="M58.1,74.9h-5.5c-0.6-2-2.8-2.9-2.6-5.1c3.3-1.7,6.3-1.1,9,1.3c0.9,1.7,2.8,2.4,4,3.7L58.1,74.9z"/>
	<path class="st22" d="M39,52.8c-6,4.7-12.6,8.5-18.8,12.9c-0.9,0.8-2,1.2-3.2,1.1c0-3.8,2.4-7.2,2-11c-0.3-0.4-0.3-0.9,0.1-1.3
		c0,0,0.1-0.1,0.1-0.1c3.1-1.5,6.9,0,9.9-2.2c0.7-0.4,1.6-0.7,2.4-0.7C34.1,51.6,36.8,50.8,39,52.8z"/>
	<path class="st23" d="M19,54.8c0,0.3,0,0.7,0,1h-5.1c0.9-1.6,2.8-1.1,4.1-1.9C18.5,54.1,18.8,54.4,19,54.8z"/>
	<path class="st24" d="M7,57.8c1.5-1.2,3.1-2.4,5.1-1C10.6,57.7,8.8,58.1,7,57.8z"/>
	<path class="st25" d="M65,23.8c1.4-0.2,2.5,0.6,3.4,1.3c1.1,0.8,1.7-0.2,2.6-0.3c1,1.4,3.5,0.9,3.9,3.1c0.6,1.1,1.6,2.3,0.7,3.7
		c-1,1.6-0.7,3.2,0,4.9c-2.7,0.8-5.5,0-8.1,0.5c-0.1,0.9,0.6,1.7,1.5,1.8c0,0,0,0,0.1,0c2.2-0.7,4,0.2,5.6,1.6l0.3,0.6
		c1.8,2.2,0.9,4.7,1,7.3c-2.8,0.9-5.6,0.2-8.3,0.5c-1.2,0.1-2.7-0.7-3.5,1c-2,0.8-3.6-0.5-5.5-0.8c-1.3-1.6-4.3-1.4-4.7-4
		c1.7,0,3.2-0.2,4.1-2.1c1.1-2,2.4-3.9,3.8-5.8c0.2-2-2.1-1.8-2.8-3.3C60.2,30,64.3,27.9,65,23.8z"/>
	<path class="st26" d="M53.9,44.9c0.5,1.3,2,0.7,2.8,1.3s2.5,0.8,2.2,2.6c0.6,2.5-1.5,3.4-2.8,4.7c-2.5,1.6-5.4,1.5-8.2,2.3l-9-2.9
		l-8-0.1c2-5.2,6.7-7.3,11-9.9c2.8-0.4,5.4,0.8,8,1.5C51.4,44.7,52.7,44.7,53.9,44.9z"/>
	<path class="st27" d="M42,42.9c-2.9,3-6,5.7-9.4,8.1c-0.7,0.4-1.3,1-1.6,1.7L29,53c-0.2,0.2-0.6,0.3-0.8,0.1
		C28.1,53,28,52.9,28,52.8l-4-6.9c4.9-1,9.8-1.4,14.6-2.8C39.7,42.9,40.9,42.8,42,42.9z"/>
	<path class="st28" d="M56,52.8l3-4c2-1.5,3.4,0.6,5.1,1l2.1,0.9c3.4,0,6.7,0.3,8.8,3.5c2.2,2.3,0.4,5.3,1.4,8.1l2.7,1.5
		c1,2.6-0.9,2.9-2.5,2.8C69.9,66.4,63.3,66,57,64.1c-0.6-0.6-1.1-1.1-1.7-1.8C50.9,58,51,56.9,56,52.8z"/>
	<path class="st29" d="M74.9,54.2l-8.8-3.5c0.2-0.7,0.8-1.1,1.5-1l15.9,0.1c0.7-0.1,1.3,0.4,1.5,1c-1.8,0.1-3.5,0.7-5,1.6
		C78.4,53.3,76.7,53.9,74.9,54.2z"/>
	<path class="st30" d="M75,37.9h8c-2.4,1.8-5.2,2.8-8.1,3.1l0.1-0.2C74.2,40,74.2,38.8,75,37.9C75,37.9,75,37.9,75,37.9z"/>
	<path class="st31" d="M75,27.9c-0.9-0.6-1.9-1-3-1.2c-1.1-0.1-0.9-1.1-0.9-1.9h3.9c0.3,0,0.7,0.1,1,0.1c0.8,0.7,0.8,1.9,0.1,2.7
		c0,0-0.1,0.1-0.1,0.1L75,27.9z"/>
	<path class="st32" d="M75,37.9v2.9c-2.2,0-3.8-1.9-5.9-2C70.8,36.9,73,38.2,75,37.9z"/>
	<path class="st33" d="M76,27.7v-2.9h6.1C80.4,26.5,78.3,27.5,76,27.7z"/>
	<path class="st34" d="M57,62.8c0.3,0.3,0.7,1,1,0.9c4.5-0.5,8.7,1.3,13.2,1.1c2.4-0.1,4.6,1.9,7.3,0.7c0.6-0.3,0.4-1,0.5-1.7
		c4.9-1.2,9.8-1.1,14.7-1c1.6,0,2.7-1.2,4.3-1l-4.2,4.9c-6.3-0.4-12.4,1.7-18.7,1.2c-0.4,0-0.8,0.5-1.2,0.8l-15,2.4l-9-1.3
		c-0.1-0.3-0.2-0.6-0.2-0.9C51.6,66.2,52.2,61.9,57,62.8z"/>
	<path class="st35" d="M28,52.7l1,0.3c-3.2,1.3-6.6,1.9-10,1.9c-0.5,0-0.9-0.4-1-0.9l1.1-1L28,52.7z"/>
	<path class="st36" d="M57,62.8c-2-0.1-3,1.3-3.8,2.7c-0.7,1.5-1.9,2.7-3.4,3.4L45,64.7c-0.6-3,1.4-4.9,3-6.9
		c1.3-0.7,1.2-1.4-0.1-2.1c0.3-1.1,1.3-1.9,2.5-1.8c2,0.3,3.6-1,5.5-1.1c-1,1.9-3,3.4-3,5.8C53.6,60.8,57.2,60,57,62.8z"/>
	<path class="st37" d="M40,65.9l-10,6c0-1.6-0.1-3.2,0.8-4.7c0.5-0.7,0.3-1.7-0.4-2.2c-0.1-0.1-0.3-0.2-0.4-0.2l9.9-4
		C41.5,62.5,41.3,64.2,40,65.9z"/>
	<path class="st17" d="M40,65.9v-5.1c2.3-1.9,5.2-2.9,8.1-2.9c0.4,2.9-2.3,4.5-3,6.9c-1.9,0-3.3,1.6-5,2C40,66.4,40,66.2,40,65.9z"
		/>
</g>
</svg>
