<svg xmlns="http://www.w3.org/2000/svg" width="568" height="186" viewBox="0 0 568 186">
  <defs>
    <style>
      .cls-1 {
        fill: #6c8297;
      }

      .cls-1, .cls-2 {
        fill-rule: evenodd;
      }

      .cls-2 {
        fill: #8e4d53;
      }
    </style>
  </defs>
  <path id="Заливка_цветом_2" data-name="Заливка цветом 2" class="cls-1" d="M199,17h11V45c-2.654.985-6.942,1.044-11,1-1.67-4.55-1.055-12.844-1-19-2.252-1.2-2.235-1.766-6-2-1.581,4.3-1.055,12.112-1,18h-1l1,3H179V24h1V21c0.625-1.272,1.248-.232,2-3,2.4-.679,2.209-1.684,3-2,6.494-2.6,11.294,2.373,14,4V17Zm41,1v2c3.127,0.773,4.185,1.912,5,5,1.922,1.972,2.041,4.986,2,9H226v2c2.925,1.744,2.876,2.864,8,3,1.972-2.764,7.248-2.169,12-2-0.8,4.059-3.144,6.987-7,8-6.622,6.645-20.638-1.358-23-6-5.444-10.7,3.245-20.7,10-23h10C237.217,17.346,237.8,17.49,240,18Zm39,2c2.4-.655,1.6-1.136,3-2h2l1-2h10c1.185,1.709.621,1.3,3,2q1,3,2,6h1V46H290c0.079-6.835.024-14.645-1-20a11.18,11.18,0,0,0-4-1c-1.135,1.068-.047.376-2,1-0.991,5.377-1.016,13.151-1,20H271V27c-2.079-1.106-1.783-1.572-5-2l-1,2c-3,3.034-2.685,14.6-1,19H252V17h10l1,3c5.649-3.478,6.366-4.725,15-3Zm-53,8h10V27c-1.068-1.135-.376-0.047-1-2l-6-1c-1.135,1.068-.047.376-2,1Zm44,23h12V63h1V61l7-6c0.941-1.252.63-3.327,2-4h15c-0.773,3.127-1.912,4.185-5,5-1.055,3.975-5.782,8.117-9,10,0.862,1.121-.114.129,1,1,3.9,8.543,10.915,14.577,15,23H294c-2.265-4.9-6.5-8.65-8-14h-2c-2.123,3.991-2.092,7.49-2,14H270V51ZM230,61v2h1V61l9,2c1.82,3.026,4.013,3.851,5,8-3.063.654-3.477,1.566-7,2a21.452,21.452,0,0,1-2-5c-1.048.655-.344,1.56-1,2-0.917.615-4.022-2.946-7,1-4.415,4.156-1.558,11.865,5,12,1.135-1.068.047-.376,2-1V79a75.549,75.549,0,0,1,10,0q-0.5,3-1,6c-2.446,1.471-2.818,3.088-6,4-4.952,4.977-13.9-.014-18-2V84l-3-1c-0.862-7.671-.442-9.287,1-16C221.91,64.732,224.541,62.143,230,61ZM343,90H332c-0.285-2.181-.024-1.887-1-3-2.267,3.85-5.645,4.177-12,4-2.059-2.2-3.913-1.518-5-5-5.8-6.69,5.324-12.828,10-13v2c1.387-1.146.08-.244,1-2l5-1c0.862-1.121-.114-0.129,1-1V68h-6c-1.315,4.4-5.637,3.271-11,3,0.276-4.1,1.5-6.988,5-8,4.4-4.373,6.037.461,10,0,1.435-.167,1.311-1.8,2-2,3.363-.974,7.847,2.282,9,4C343.41,68.663,342.489,84.264,343,90Zm17,9H349V63c2.438-.907,6.192-1.039,10-1,0.285,2.181.024,1.887,1,3,2.112-3.229,5.511-4.055,11-4,1.556,1.728,2.314.819,4,2,1.609,1.126,2.463,3.7,4,5,0.54,8.284.551,10.7-1,18-4.345,2.647-5.328,4.945-13,5a30.091,30.091,0,0,0-5-3V99Zm55-20H394v1c1.068,1.135.376,0.047,1,2a3.876,3.876,0,0,1,2,1c3.808,1.037,11.878-3.561,14,0v4a14.124,14.124,0,0,0-4,3,113.726,113.726,0,0,1-15,0c-1.307-1.887-3.754-2.278-5-4-2.71-3.746-3.048-8.4-3-15,4.622-3.464,3.812-8.481,12-9,2.594-2.11,7.959.067,12,1C411.521,68.9,414.05,69.5,415,79Zm24-16v2h2l-1-3h10a13.18,13.18,0,0,1,1,5c-2.086,2.5-1.094,18.049-1,23H440c0.36-8.776,1.939-19-6-20-2.387,4.521-2.086,12.65-2,20H421c-0.134-10.3.371-18.326,2-26C430.445,59.688,430.706,61.01,439,63Zm83,16H502v2c2.522,1.353,3.507,1.979,8,2,1.9-1.633,7.5-1.1,11-1v1c-2.591,2.271-3.044,4.882-7,6-2.762,2.846-12.108,2.716-15,0a7.6,7.6,0,0,1-6-6c-3.363-3.493-.519-5.415-1-9h-1V71c1.73-1.559.819-2.3,2-4l6-5c7.678-.461,8.407-0.587,16,1C518.116,68.178,521.757,70.368,522,79ZM457,62h11V80c2.079,1.106,1.783,1.572,5,2,1.5-2.8,1.883-2.251,2-7,2.544-2.937.314-9.309,0-13h12c-0.645,6.131-.007,18.776,0,28H477l-1-3c-1.068,1.135-.376.047-1,2-2.458.67-2.171,1.667-3,2-3.4,1.365-8.761-.563-11-1a19.826,19.826,0,0,0-4-5V62Zm70,0h11V80c2.079,1.106,1.783,1.572,5,2,1.2-2.252,1.766-2.235,2-6h1V75h-1c-0.577-3.19.649-7.36,1-9q-0.5-2-1-4h12V90H546c-0.285-2.181-.024-1.887-1-3-1.814,6.932-13.534,4.173-16,0C525.266,83.058,526.882,69.314,527,62ZM394,70v3h10V71c-2.522-1.353-3.507-1.979-8-2C394.865,70.068,395.953,69.376,394,70Zm108,3h9V71c-2.8-1.5-2.251-1.883-7-2C503.047,70.792,502.647,70.6,502,73ZM362,70c-1.4,2.609-2.58,4.043-3,8,3.288,3.554.474,4.893,8,5,1.5-2.8,2.054-4.963,2-10-1.068-1.135-.376-0.047-1-2h-1V70h-5ZM323,80c0.285,2.181.024,1.887,1,3,1.237,1.081,2.492.969,5,1a4.328,4.328,0,0,1,2-2V78C327.863,78.608,326.53,79.595,323,80Z"/>
  <path id="Заливка_цветом_1" data-name="Заливка цветом 1" class="cls-2" d="M162,47H94c-1.281,3.592-1.062,9.9-1,15,0.909,1.189.815,1.651,1,4H83V17c6.169-2.136,17.125-1,25-1h53c1.092,0.93.155,0.355,2,1v1C160.573,21.354,161.9,40.9,162,47ZM68,139H25V89H23c-2.235,2.522-4.365,3.727-9,4-2.213-2.948-4.177-2.244-5-7L51,45c4.877-4.876,9.97-13.692,17-16V139ZM541,43c4.273,1.327,5.6,4.8,9,7-1.327,4.273-4.8,5.6-7,9-3.641-1.087-7.885-5.351-9-9C536.493,48.52,539.837,45.813,541,43ZM103,58c26.993-.5,51.539,2.045,62,18,4.7,7.174,5.2,22.971,2,32-7.557,21.315-22.725,30.534-52,30v-1c10.411-6.256,12.1-36.553,8-53-1.882-7.559.765-12.605-6-15-3.082-2.78-10.547-3.643-15-2A26.578,26.578,0,0,1,103,58Zm-9,50c4.107,1.221,16.256,12.337,17,17-5.922,3.823-8.72,11.776-17,13-3.8-5.582-11.715-7.951-14-15C85.285,119.718,90.866,113.455,94,108ZM25,148H68v18c-8.944,3.129-25.135,1.072-36,1-2.027-1.394-3.692-.625-7,0V148Z"/>
</svg>
