<svg xmlns="http://www.w3.org/2000/svg" viewBox="0 0 473.63 473.61"><defs><style>.cls-1{fill:#606161;}.cls-2{fill:#6b7f92;}.cls-3{fill:#b78f30;}.cls-4{fill:#a1a7b0;}.cls-5{fill:#874f57;}</style></defs><title>Ресурс 1</title><g id="Слой_2" data-name="Слой 2"><g id="Слой_1-2" data-name="Слой 1"><path class="cls-1" d="M248.75,135.25C262.6,121.31,291.84,92.12,302,82A5,5,0,0,1,309,82L472.17,245.19a5,5,0,0,1,0,7.07L252.28,472.15a5,5,0,0,1-7.07,0L25.32,252.26a5,5,0,0,1,0-7.07L131.73,138.78a5,5,0,0,0,0-7.07l-17-17a5,5,0,0,0-7.07,0L58,164.34a5,5,0,0,1-7.07,0L1.46,114.91a5,5,0,0,1,0-7.07L107.83,1.46a5,5,0,0,1,7.1,0c15.75,16,80.25,81.42,113.62,114.16,6.66,6.53,13.56,13.05,20.2,19.6Z"/><path class="cls-1" d="M437.73,59.87,389,108.56a5,5,0,0,1-7,.07L331.4,59.93a5,5,0,0,1-.07-7.14L382,2.16a5,5,0,0,1,7.14.07l48.7,50.64A5,5,0,0,1,437.73,59.87Z"/><rect class="cls-2" x="209.43" y="151.54" width="78.64" height="78.63" transform="translate(-62.1 231.79) rotate(-45)"/><path class="cls-3" d="M306.61,304.33,251,248.73l55.6-55.6,52.06,52.06a5,5,0,0,1,0,7.07Z"/><path class="cls-4" d="M304.34,306.6l-52.06,52.06a5,5,0,0,1-7.07,0L193.15,306.6l55.6-55.6Z"/><path class="cls-5" d="M190.88,304.33l-52.06-52.06a5,5,0,0,1,0-7.07l52.06-52.06,55.6,55.6Z"/></g></g></svg>