<svg xmlns="http://www.w3.org/2000/svg" viewBox="0 0 1421.18 113.16"><title>title</title><g id="Слой_2" data-name="Слой 2"><g id="Слой_1-2" data-name="Слой 1"><path d="M303.62,109.86H286.38V44.65l-1-.36c-4.26,5.43-8.55,10.84-12.79,16.28C266.23,68.72,260,76.92,253.6,85c-3.3,4.21-4.64,4.14-8-.05q-14-17.59-28-35.17c-1.3-1.63-2.66-3.2-5-6v65.91H195.53V0c2.19,1.73,3.91,2.64,5,4q23.53,29.46,46.92,59c.6.76,1.31,1.44,2.27,2.51,17.44-22,34.75-43.75,52.34-65.26l1.53.95Z"/><path d="M987.68,3.08c17.85,0,35.5-.89,53,.33,10.46.73,18.65,7.41,21.36,18.34,2.78,11.22-.66,20.66-9.84,27.87-.75.59-1.47,1.23-2.56,2.14,1,.56,1.69,1,2.39,1.29,11.51,5.18,17.61,14.09,17.27,26.7-.34,12.79-6.74,22-18.42,27.29a26.42,26.42,0,0,1-10,2.7c-17.62.27-35.25.12-53.19.12Zm17.94,92.69c9.65,0,18.8.29,27.92-.11,5.69-.25,11.11-1.83,14.7-7.08,8.15-11.92,1.3-27-13.59-28.38-9.52-.89-19.2-.17-29-.17Zm.19-78.72v28.9c9.22,0,18.06.47,26.82-.14,7.66-.53,12.59-6.59,12.81-14.09s-3.83-13.83-10.92-14.46C1025,16.41,1015.37,17,1005.81,17Z"/><path d="M496.29,16.94c-8.35,0-15.86-.43-23.31.11-8.81.64-15.39,5.11-18.46,13.72-3,8.43-1,17.38,6.63,22.77,5.39,3.8,12.12,5.73,18.31,8.35,1.46.62,3.17.67,5.6,1.15-1.31,2-2.17,3.53-3.21,4.92-9.72,12.89-19.54,25.7-29.14,38.67-1.89,2.56-3.83,3.69-7,3.53-5.13-.25-10.28-.07-16.62-.07l32.38-40.75c-1.85-.84-3.41-1.58-5-2.27q-23.67-10.31-21-35.15c1.47-14,12.14-25.16,27.82-28,6.48-1.17,13.23-1,19.87-1.15,10.27-.17,20.55,0,31.08,0v107H496.29Z"/><path d="M851.46,16.08h-33c-1,10.58-1.83,21.13-3.14,31.61-1.8,14.32-3.39,28.71-6.21,42.85-2.44,12.21-11,19.28-23.05,22.26-3.35.83-5.6.4-7-3.21-1.06-2.77-2.81-5.27-4.4-8.18a6.48,6.48,0,0,1,1.58-.92c13.74-3.17,18-13.3,19.17-25.83q3.18-34,6.53-68.06c.11-1.13.38-2.25.62-3.61h66.87V109.84h-18Z"/><path d="M1228,16.32c-.87,9.05-1.52,18.16-2.67,27.19-2,15.79-3.76,31.65-6.74,47.27-2.25,11.79-10.52,18.76-22.19,21.79-3.7,1-6.28.89-7.86-3.18a73.06,73.06,0,0,0-4.11-7.83c.44-.38.66-.72.94-.79,15.16-3.57,18.81-15.06,20-28.52q2.87-33.05,6.21-66.06c.12-1.24,1.94-3.29,3-3.3,21.44-.19,42.88-.15,64.61-.15v107h-17.9V16.32Z"/><path d="M412.46,109.82h-18V16.36H361.41c-1,10.27-1.77,20.68-3.07,31-1.79,14.32-3.39,28.7-6.17,42.85-2.39,12.18-10.77,19.41-22.81,22.5-3.6.92-5.91.49-7.38-3.28a73,73,0,0,0-4.31-8,7.17,7.17,0,0,1,1.72-1C332.14,97.54,337,88.34,338.22,76.5c2.19-21.85,4.14-43.72,6.2-65.58.23-2.48.6-4.95,1-7.8h67.07Z"/><path d="M894.92,2.68h70.17V16.77H913.45V46.7h46.84V60.77h-46.7V95.69h55.34v14h-74Z"/><path d="M615.52,54.25l49.94,55.67c-7.38,0-14.06.14-20.73-.14-1.12,0-2.27-1.8-3.23-2.92q-18.08-21-36.12-42.11c-2.27-2.65-4.65-5.2-7.92-8.85V109.8H578.74V2.9h18.42V51.4l1.12.4q10.7-12,21.39-24.07c6.52-7.35,12.88-14.87,19.66-22a12.35,12.35,0,0,1,7.21-3.13c4.7-.49,9.5-.14,15.59-.14Z"/><path d="M1304.66,2.74h17.93V44c5.95,0,11.37-.23,16.77.05,8.44.44,17.09.24,25.25,2.06,17.26,3.85,26.24,17.45,24.87,35.66-1.12,14.86-13.06,27-29.62,27.88-18.25.94-36.58.21-55.2.21ZM1323,96.92c11.32-.56,22.46-.33,33.35-1.87s15.17-7.93,15-18.33c-.19-9.53-6.45-17.58-16.21-18.44-10.52-.92-21.18-.21-32.1-.21Z"/><path d="M102.75,2.64H173V16.82H121.23v30h46.94v14H121.29V95.71h55.38v14H102.75Z"/><path d="M24.88,59.62V45.89c4.5,0,8.84.47,13-.12A62.73,62.73,0,0,0,52.71,42a11.81,11.81,0,0,0,7.58-11.38c0-5.58-3.21-9.33-8-11.73-8.92-4.51-18.44-4-27.86-2.52-6.68,1-13.24,2.88-20.41,4.5,0-4.22-.18-8.36.12-12.46a4.34,4.34,0,0,1,2.53-3C24.81,0,43-2.88,61.38,4.42c9.65,3.84,16.38,10.24,17,21.26C79,37.16,73.36,44.92,63.45,50c-.72.37-1.39.85-2.42,1.48A13.71,13.71,0,0,0,63.4,52.8c22.42,6.53,23,34.52,8.84,47.27-8.93,8-19.69,10.9-31.12,11.7-12.54.88-24.9-.32-36.86-4.69C1.1,105.93-.26,104.4,0,101s.07-7,.07-11.06C3.35,91.16,6,92.25,8.78,93.22c13.06,4.65,26.38,5.45,39.71,1.64,7.75-2.21,13.85-6.7,15-15.53,1-7.8-1.86-13.68-9.21-16.39-5.33-2-11.24-2.54-17-3.23C33.37,59.23,29.36,59.62,24.88,59.62Z"/><path d="M1176.56,109.72c-17.47,1.59-17.49,1.6-23.82-13.45q-12.17-28.92-24.29-57.87c-.75-1.78-1.56-3.53-2.7-6.11-1.28,2.85-2.29,4.89-3.15,7-9,22.13-18.14,44.23-27,66.43-1.3,3.26-2.82,4.74-6.45,4.43-4.07-.34-8.19-.08-13-.08,5.68-12.68,11-24.63,16.36-36.55q15.33-34.07,30.75-68.11c.75-1.65,2.21-3,3.34-4.47,1.2,1.39,2.82,2.6,3.54,4.21q22.62,50.45,45.06,101C1175.62,107.18,1176,108.25,1176.56,109.72Z"/><path d="M670.05,110.08c5.32-11.79,10.32-22.79,15.27-33.82Q701.46,40.33,717.61,4.4c.6-1.34,2-2.31,3-3.46,1,1.13,2.44,2.09,3,3.41Q746.63,55.54,769.4,106.8a31.43,31.43,0,0,1,1,3.26c-5.56,0-10.71.27-15.8-.18-1.35-.12-3-2.27-3.67-3.84-9.24-21.71-18.34-43.48-27.48-65.24-1.08-2.58-2.24-5.13-3.73-8.56-1.32,3-2.37,5.18-3.29,7.43-9,22.15-18.1,44.29-27,66.49-1.15,2.85-2.52,4.22-5.78,4C679.38,109.84,675.1,110.08,670.05,110.08Z"/><path d="M1421.18,109.85h-17.44V2.73h17.44Z"/><path d="M721.2,63l10,9.68L719.91,83.42l-10-10.91Z"/><path d="M1126.08,83.78,1115,73l11.67-9.52,10.15,9.61Z"/></g></g></svg>